<svg width="16" height="16" viewBox="0 0 16 16" fill="none" xmlns="http://www.w3.org/2000/svg">
<path d="M11.6667 8C11.4015 8 11.1471 7.89464 10.9596 7.70711C10.772 7.51957 10.6667 7.26522 10.6667 7C10.6667 6.73478 10.772 6.48043 10.9596 6.29289C11.1471 6.10536 11.4015 6 11.6667 6C11.9319 6 12.1862 6.10536 12.3738 6.29289C12.5613 6.48043 12.6667 6.73478 12.6667 7C12.6667 7.26522 12.5613 7.51957 12.3738 7.70711C12.1862 7.89464 11.9319 8 11.6667 8ZM9.66667 5.33333C9.40145 5.33333 9.1471 5.22798 8.95956 5.04044C8.77202 4.8529 8.66667 4.59855 8.66667 4.33333C8.66667 4.06812 8.77202 3.81376 8.95956 3.62623C9.1471 3.43869 9.40145 3.33333 9.66667 3.33333C9.93188 3.33333 10.1862 3.43869 10.3738 3.62623C10.5613 3.81376 10.6667 4.06812 10.6667 4.33333C10.6667 4.59855 10.5613 4.8529 10.3738 5.04044C10.1862 5.22798 9.93188 5.33333 9.66667 5.33333ZM6.33333 5.33333C6.06812 5.33333 5.81376 5.22798 5.62623 5.04044C5.43869 4.8529 5.33333 4.59855 5.33333 4.33333C5.33333 4.06812 5.43869 3.81376 5.62623 3.62623C5.81376 3.43869 6.06812 3.33333 6.33333 3.33333C6.59855 3.33333 6.8529 3.43869 7.04044 3.62623C7.22798 3.81376 7.33333 4.06812 7.33333 4.33333C7.33333 4.59855 7.22798 4.8529 7.04044 5.04044C6.8529 5.22798 6.59855 5.33333 6.33333 5.33333ZM4.33333 8C4.06812 8 3.81376 7.89464 3.62623 7.70711C3.43869 7.51957 3.33333 7.26522 3.33333 7C3.33333 6.73478 3.43869 6.48043 3.62623 6.29289C3.81376 6.10536 4.06812 6 4.33333 6C4.59855 6 4.8529 6.10536 5.04044 6.29289C5.22798 6.48043 5.33333 6.73478 5.33333 7C5.33333 7.26522 5.22798 7.51957 5.04044 7.70711C4.8529 7.89464 4.59855 8 4.33333 8ZM8 2C6.4087 2 4.88258 2.63214 3.75736 3.75736C2.63214 4.88258 2 6.4087 2 8C2 9.5913 2.63214 11.1174 3.75736 12.2426C4.88258 13.3679 6.4087 14 8 14C8.26522 14 8.51957 13.8946 8.70711 13.7071C8.89464 13.5196 9 13.2652 9 13C9 12.74 8.9 12.5067 8.74 12.3333C8.58667 12.1533 8.48667 11.92 8.48667 11.6667C8.48667 11.4015 8.59202 11.1471 8.77956 10.9596C8.9671 10.772 9.22145 10.6667 9.48667 10.6667H10.6667C11.5507 10.6667 12.3986 10.3155 13.0237 9.69036C13.6488 9.06523 14 8.21739 14 7.33333C14 4.38667 11.3133 2 8 2Z" fill="#318130"/>
</svg>
