
<svg width="32" height="32" viewBox="0 0 32 32" fill="none" xmlns="http://www.w3.org/2000/svg">
<path d="M20.0002 22.6667H26.6668L24.7936 20.7934C24.2856 20.2854 24.0002 19.5964 24.0002 18.8779V14.6667C24.0002 11.1834 21.774 8.22012 18.6668 7.12189V6.66667C18.6668 5.19391 17.4729 4 16.0002 4C14.5274 4 13.3335 5.19391 13.3335 6.66667V7.12189C10.2263 8.22012 8.00016 11.1834 8.00016 14.6667V18.8779C8.00016 19.5964 7.71476 20.2854 7.20674 20.7934L5.3335 22.6667H12.0002M20.0002 22.6667V24C20.0002 26.2091 18.2093 28 16.0002 28C13.791 28 12.0002 26.2091 12.0002 24V22.6667M20.0002 22.6667H12.0002" stroke="#318130" stroke-width="2" stroke-linecap="round" stroke-linejoin="round"/>
</svg>
