<svg width="12" height="14" viewBox="0 0 12 14" fill="none" xmlns="http://www.w3.org/2000/svg">
<path d="M11.3398 2.92901C11.2978 2.89522 11.2473 2.87351 11.1938 2.8662C11.1404 2.85889 11.0859 2.86626 11.0363 2.88751L6.20635 4.97901C5.99635 5.07051 5.73335 5.11401 5.46335 5.11401C5.08685 5.11551 4.69735 5.02801 4.42585 4.90901C4.34311 4.87417 4.26433 4.83059 4.19085 4.77901C4.21085 4.76901 4.23585 4.75801 4.26335 4.74701L8.65635 2.84501L9.31135 3.12501V2.30651C9.31233 2.24814 9.30012 2.19031 9.27562 2.13732C9.25112 2.08433 9.21496 2.03757 9.16985 2.00051C9.12796 1.96676 9.07766 1.94506 9.02436 1.93775C8.97106 1.93044 8.91678 1.93779 8.86735 1.95901L4.03735 4.05051C3.88835 4.11051 3.76035 4.18451 3.65235 4.29201C3.52728 4.4154 3.45626 4.58334 3.45485 4.75901C3.45485 4.76401 3.45635 4.77251 3.45635 4.77251V12.1375L3.45535 12.1475C3.45535 12.1495 3.45685 12.1505 3.45685 12.1525V12.1605H3.45785C3.46785 12.418 3.59785 12.582 3.72185 12.698C4.11185 13.042 4.76685 13.2345 5.46385 13.2445C5.79385 13.2445 6.12885 13.1945 6.43885 13.0615L11.2703 10.9695C11.3978 10.9145 11.4813 10.778 11.4813 10.6235V3.23501C11.4821 3.17668 11.4698 3.11891 11.4453 3.06596C11.4208 3.013 11.3848 2.96621 11.3398 2.92901ZM8.27635 1.52901C8.26785 1.41901 8.22235 1.31401 8.14135 1.25101C8.09928 1.21722 8.04881 1.19551 7.99535 1.1882C7.94189 1.18089 7.88744 1.18826 7.83785 1.20951L3.00785 3.30001C2.79785 3.39101 2.53435 3.43501 2.26485 3.43501C1.88835 3.43601 1.49885 3.34851 1.22735 3.22901C1.14453 3.19475 1.06572 3.15149 0.992348 3.10001C1.01235 3.09001 1.03735 3.07901 1.06485 3.06801L5.45835 1.16601L6.11335 1.44601V0.628514C6.11424 0.57011 6.10193 0.512258 6.07734 0.459274C6.05276 0.40629 6.01652 0.359541 5.97135 0.322514C5.92936 0.288767 5.87897 0.267077 5.8256 0.259766C5.77223 0.252456 5.71787 0.259801 5.66835 0.281014L0.838348 2.37301C0.689348 2.43301 0.561848 2.50651 0.453348 2.61451C0.328468 2.73798 0.257627 2.90591 0.256348 3.08151C0.256348 3.08751 0.257848 3.09551 0.257848 3.09551V10.484H0.258848C0.268848 10.7415 0.398848 10.9055 0.522848 11.0215C0.912848 11.3655 1.56785 11.5575 2.26535 11.5675C2.45477 11.5664 2.64358 11.546 2.82885 11.5065V4.77201C2.82385 4.42201 2.96385 4.08601 3.20985 3.84401C3.38028 3.67869 3.58278 3.55005 3.80485 3.46601L8.27635 1.52901Z" fill="#318130"/>
</svg>
