<svg width="16" height="16" viewBox="0 0 16 16" fill="none" xmlns="http://www.w3.org/2000/svg">
<g clip-path="url(#clip0_760_1899)">
<path d="M8.71875 0.862504C8.40625 0.94688 8.17187 1.15 8.01875 1.46875C7.9375 1.64375 7.92188 1.70625 7.92188 1.92188C7.92188 2.44375 8.2125 2.85313 8.69062 3.00313C9.26562 3.18125 9.85312 2.90313 10.0844 2.34063C10.1625 2.15313 10.1625 1.72188 10.0844 1.53438C9.95 1.20625 9.67812 0.956254 9.34687 0.862504C9.1375 0.803129 8.94687 0.803129 8.71875 0.862504Z" fill="#318130"/>
<path d="M6.72828 3.38437C6.33141 3.54062 5.94391 3.71562 5.86891 3.76875C5.76266 3.84375 5.64391 4 5.35953 4.44063C4.91891 5.125 4.90641 5.15312 4.97828 5.2625C5.04078 5.35312 5.55328 5.625 5.66578 5.625C5.76266 5.625 5.81891 5.55937 6.12516 5.06563C6.26891 4.8375 6.41578 4.6375 6.45016 4.62187C6.57203 4.57187 7.38141 4.34062 7.40641 4.35C7.41891 4.35625 7.20328 5.1 6.92516 6.00625L6.42203 7.65312L5.59391 8.45312C5.13766 8.89687 4.75328 9.2875 4.74078 9.325C4.70328 9.43125 4.74391 9.5 5.03141 9.8375C5.31578 10.1719 5.42516 10.25 5.54078 10.1969C5.57828 10.1781 6.00953 9.77812 6.50016 9.30625L7.39078 8.45L7.70016 7.6C7.90016 7.05312 8.02203 6.75937 8.04391 6.77187C8.12516 6.82187 9.31266 7.69375 9.32516 7.7125C9.33141 7.725 9.27516 8.24687 9.20016 8.875C9.04703 10.1656 9.04078 10.2969 9.11578 10.3812C9.16266 10.4344 9.15328 10.4375 8.84703 10.4375C8.47203 10.4375 8.33141 10.4906 8.21578 10.6781L8.14078 10.7969L8.13141 12.9906L8.12203 15.1875H9.79703H11.4689V12.8125V10.4375H10.7439C10.0283 10.4375 10.022 10.4375 10.0783 10.375C10.122 10.3281 10.1627 10.0687 10.2845 9.10313C10.4564 7.76562 10.472 7.4875 10.3939 7.3C10.3064 7.0875 10.2033 6.98438 9.72516 6.62187C9.47203 6.43125 9.24703 6.25625 9.22516 6.23438C9.19391 6.20625 9.21891 6.04375 9.35953 5.40625C9.45641 4.96875 9.53766 4.60938 9.54078 4.60312C9.54703 4.6 9.67516 4.68125 9.82828 4.78438C10.2533 5.06875 10.3314 5.10312 10.547 5.10312C10.7283 5.10312 10.7783 5.08125 11.7658 4.5875C12.8689 4.03438 12.9095 4.00313 12.8439 3.82812C12.7845 3.67188 12.4689 3.1625 12.4189 3.14375C12.3939 3.13437 12.347 3.125 12.3189 3.125C12.2877 3.125 11.8658 3.31563 11.3814 3.54688C10.8564 3.79688 10.4783 3.95937 10.4564 3.94687C10.4345 3.93125 10.2783 3.82187 10.1064 3.7C9.93766 3.57812 9.74703 3.4625 9.68766 3.44063C9.48766 3.37813 7.79391 3.09375 7.62203 3.09375C7.48453 3.09375 7.32516 3.14687 6.72828 3.38437Z" fill="#318130"/>
<path d="M13.1281 5.23125C13.1063 5.25625 13.0938 5.325 13.1 5.38125C13.1094 5.475 13.125 5.4875 13.25 5.525C13.5031 5.6 13.4906 5.59375 13.4375 5.62187C12.4375 6.15 11.4094 6.70625 11.3688 6.74375C11.3375 6.76875 11.3125 6.81562 11.3125 6.85C11.3125 6.91562 11.4188 7.03125 11.4781 7.03125C11.5 7.03125 11.9938 6.77812 12.575 6.46875C13.1562 6.15625 13.6406 5.9125 13.6469 5.91875C13.6562 5.92812 13.6469 5.97812 13.6281 6.03437C13.5844 6.16562 13.5844 6.32187 13.6313 6.36875C13.6813 6.41875 13.8281 6.41562 13.8688 6.36562C13.9125 6.3125 14.0938 5.64375 14.0938 5.53437C14.0938 5.41875 14.075 5.40625 13.6344 5.28437C13.2375 5.175 13.1781 5.16875 13.1281 5.23125Z" fill="#318130"/>
<path d="M12.0438 8.5125C11.9031 8.575 11.7906 8.70937 11.7531 8.8625C11.7281 8.95312 11.7188 9.97813 11.7188 12.0906V15.1875H13.3906H15.0625L15.0563 12.0062L15.0469 8.825L14.9688 8.70937C14.9281 8.64687 14.8406 8.56875 14.7781 8.53437C14.6688 8.47187 14.6188 8.46875 13.4031 8.46875C12.4125 8.47187 12.1188 8.48125 12.0438 8.5125Z" fill="#318130"/>
<path d="M4.85938 11.95C4.73125 12.0094 4.6 12.1562 4.5625 12.2844C4.54375 12.3469 4.53125 12.9688 4.53125 13.7875V15.1875H6.20312H7.875V13.5469V11.9062H6.41562C5.2625 11.9094 4.93438 11.9188 4.85938 11.95Z" fill="#318130"/>
<path d="M1.34707 13.0312C1.20957 13.0625 1.09395 13.1531 1.01582 13.2844C0.956445 13.3844 0.95332 13.4562 0.943945 14.2906L0.93457 15.1875H2.60645H4.28145V14.0938V13L2.86895 13.0031C2.09082 13.0062 1.40645 13.0187 1.34707 13.0312Z" fill="#318130"/>
</g>
<defs>
<clipPath id="clip0_760_1899">
<rect width="16" height="16" fill="white"/>
</clipPath>
</defs>
</svg>
