<svg width="12" height="13" viewBox="0 0 12 13" fill="none" xmlns="http://www.w3.org/2000/svg">
<path d="M11.25 7.73242C9.62875 8.38868 7.85658 8.75007 6 8.75007C4.14343 8.75007 2.37126 8.38868 0.75 7.73242M8.33333 3.50008V2.33341C8.33333 1.68908 7.811 1.16675 7.16667 1.16675H4.83333C4.189 1.16675 3.66667 1.68908 3.66667 2.33341V3.50008M6 7.00008H6.00583M1.91667 11.6667H10.0833C10.7277 11.6667 11.25 11.1444 11.25 10.5001V4.66675C11.25 4.02242 10.7277 3.50008 10.0833 3.50008H1.91667C1.27233 3.50008 0.75 4.02242 0.75 4.66675V10.5001C0.75 11.1444 1.27233 11.6667 1.91667 11.6667Z" stroke="white" stroke-linecap="round" stroke-linejoin="round"/>
</svg>
