<svg width="17" height="16" viewBox="0 0 17 16" fill="none" xmlns="http://www.w3.org/2000/svg">
<path d="M8.03438 0.0593863C7.65938 0.200011 7.38438 0.450011 7.2125 0.809386C7.125 0.990636 7.10938 1.05626 7.1 1.32814C7.09375 1.50314 7.10313 1.69689 7.11875 1.75939L7.15 1.87501L5.225 3.46876L3.3 5.06251H2.59375C1.95 5.06251 1.875 5.06876 1.68438 5.13439C1.1375 5.32189 0.728125 5.73439 0.5625 6.27814C0.503125 6.46876 0.5 6.58751 0.5 10.5313C0.5 14.475 0.503125 14.5938 0.5625 14.7844C0.728125 15.3281 1.1375 15.7406 1.68438 15.9281L1.89062 15.9969H8.5H15.1094L15.3156 15.9281C15.8625 15.7406 16.2719 15.3281 16.4375 14.7844C16.4969 14.5938 16.5 14.475 16.5 10.5188L16.4969 6.45314L16.4281 6.24689C16.2375 5.68439 15.8156 5.28126 15.2531 5.11251C15.1188 5.07189 14.9375 5.06251 14.3906 5.06251H13.7L11.7719 3.46564C10.0437 2.03751 9.84375 1.86251 9.86563 1.80314C9.87813 1.76564 9.89062 1.57189 9.89062 1.37501C9.89062 1.02814 9.8875 1.00626 9.78438 0.796885C9.64375 0.509386 9.39688 0.262511 9.10938 0.12501C8.90625 0.0250111 8.8625 0.0156355 8.54688 0.00938606C8.26562 1.04904e-05 8.17188 0.00938606 8.03438 0.0593863ZM8.73125 1.02814C8.86563 1.11876 8.9375 1.24689 8.9375 1.40626C8.9375 1.56564 8.86563 1.69376 8.73125 1.78439C8.675 1.81876 8.58438 1.84376 8.5 1.84376C8.25 1.84376 8.0625 1.65626 8.0625 1.40626C8.0625 1.15626 8.25 0.96876 8.5 0.96876C8.58438 0.96876 8.675 0.993761 8.73125 1.02814ZM8.5 2.79689C8.85313 2.79689 8.90625 2.78751 9.0625 2.71564L9.23438 2.63751L10.6906 3.84064L12.1469 5.04689L10.3219 5.05626C9.32188 5.05939 7.67812 5.05939 6.67812 5.05626L4.85313 5.04689L6.30938 3.84064L7.76562 2.63751L7.9375 2.71564C8.09375 2.78751 8.14687 2.79689 8.5 2.79689ZM5.67188 8.26251C6 8.35001 6.24688 8.49689 6.5 8.75001C6.78125 9.02814 6.95937 9.35939 7.06875 9.79689C7.15938 10.1719 7.16875 10.8063 7.08125 11.1688C6.925 11.8469 6.55625 12.3625 6.04063 12.6344C5.70312 12.8125 5.52187 12.8406 4.70937 12.8469C3.91563 12.8531 3.9125 12.8531 3.75938 12.625L3.6875 12.5219L3.68125 10.6125C3.68125 9.56251 3.68125 8.65939 3.68438 8.60939C3.7 8.42501 3.84375 8.26876 4.04688 8.21564C4.21563 8.16876 5.4625 8.20626 5.67188 8.26251ZM8.725 8.27189C8.775 8.30314 8.84688 8.37814 8.88438 8.43751L8.95312 8.54689V10.5313C8.95312 12.4594 8.95 12.5188 8.89062 12.6188C8.70938 12.9188 8.29063 12.9188 8.10938 12.6188C8.05 12.5188 8.04688 12.4594 8.04688 10.5313C8.04688 8.68126 8.05 8.54064 8.10313 8.44376C8.21563 8.23439 8.51875 8.15314 8.725 8.27189ZM10.7563 8.30939C10.8125 8.35939 11.0437 8.68126 11.2656 9.02814C11.4906 9.37189 11.6781 9.65626 11.6875 9.65314C11.6969 9.65314 11.8719 9.39064 12.0781 9.07189C12.2844 8.75001 12.4875 8.44689 12.5281 8.39689C12.6406 8.26251 12.7688 8.20939 12.9344 8.22814C13.05 8.24064 13.0969 8.26876 13.1938 8.37189C13.2969 8.48126 13.3125 8.51564 13.3125 8.65001C13.3125 8.82189 13.3094 8.82501 12.5594 9.96876L12.1406 10.6094L12.125 11.5938C12.1094 12.5156 12.1062 12.5844 12.0469 12.6625C11.9563 12.7844 11.8344 12.8438 11.6813 12.8438C11.5 12.8438 11.3562 12.75 11.2812 12.5844C11.225 12.4656 11.2188 12.3719 11.2188 11.525V10.5938L10.6375 9.70314C10.2125 9.05314 10.0531 8.78126 10.0437 8.69689C9.99687 8.32814 10.4812 8.06564 10.7563 8.30939Z" fill="white"/>
<path d="M4.59375 10.5344V11.9438L5.04063 11.9313C5.425 11.9219 5.50313 11.9125 5.61563 11.85C5.90625 11.6969 6.1125 11.3813 6.2 10.9594C6.35938 10.1938 6.10312 9.42816 5.60938 9.20004C5.46875 9.13441 5.40625 9.12504 5.025 9.12504H4.59375V10.5344Z" fill="white"/>
</svg>
