<svg width="20" height="20" viewBox="0 0 20 20" fill="none" xmlns="http://www.w3.org/2000/svg">
<path d="M18.897 1.10285C17.9597 0.165588 16.4401 0.165588 15.5028 1.10285L6.3999 10.2058V13.5999H9.79401L18.897 4.49696C19.8342 3.5597 19.8342 2.0401 18.897 1.10285Z" fill="#318130"/>
<path fill-rule="evenodd" clip-rule="evenodd" d="M0.399902 5.1999C0.399902 3.87442 1.47442 2.7999 2.7999 2.7999H7.5999C8.26264 2.7999 8.7999 3.33716 8.7999 3.9999C8.7999 4.66264 8.26264 5.1999 7.5999 5.1999H2.7999V17.1999H14.7999V12.3999C14.7999 11.7372 15.3372 11.1999 15.9999 11.1999C16.6626 11.1999 17.1999 11.7372 17.1999 12.3999V17.1999C17.1999 18.5254 16.1254 19.5999 14.7999 19.5999H2.7999C1.47442 19.5999 0.399902 18.5254 0.399902 17.1999V5.1999Z" fill="#318130"/>
</svg>
