<svg width="17" height="16" viewBox="0 0 17 16" fill="none" xmlns="http://www.w3.org/2000/svg">
<path d="M7.73438 1.125C6.9375 1.28437 6.3 1.62812 5.71563 2.21562C5.23125 2.7 4.93438 3.18437 4.7375 3.80625C4.64375 4.10625 4.5625 4.5375 4.5625 4.7375V4.875H8.5H12.4375V4.7375C12.4375 4.5375 12.3563 4.10625 12.2625 3.80625C12.0656 3.18437 11.7688 2.7 11.2844 2.21562C10.6906 1.61875 10.0563 1.28125 9.24062 1.12187C8.83437 1.04375 8.13125 1.04375 7.73438 1.125Z" fill="white"/>
<path d="M4.1 5.2875C4.075 5.3125 4.0625 5.45 4.0625 5.69375V6.0625H8.5H12.9375V5.69375C12.9375 5.45 12.925 5.3125 12.9 5.2875C12.8469 5.23438 4.15313 5.23438 4.1 5.2875Z" fill="white"/>
<path d="M1.38751 6.51875C1.33751 6.59375 1.33751 6.60938 1.38438 6.75938C1.56251 7.32188 2.15001 7.89687 3.00001 8.3375C4.05938 8.89062 5.44376 9.24687 7.10001 9.39375C7.74376 9.45 9.35314 9.45937 9.87501 9.40937C11.0094 9.3 11.9844 9.1 12.9688 8.76875C13.2 8.69062 13.4031 8.625 13.4156 8.625C13.4531 8.625 13.6313 9.01875 13.6906 9.23438L13.7406 9.42188L13.0281 9.9L12.3125 10.375V12.2812C12.3125 14.1094 12.3156 14.1937 12.3719 14.3094C12.4406 14.4406 12.6219 14.6125 12.7406 14.6594C12.7813 14.675 13.3438 14.6875 14.0031 14.6875C15.1156 14.6875 15.1969 14.6844 15.3094 14.6281C15.4406 14.5594 15.6125 14.3781 15.6594 14.2594C15.675 14.2156 15.6875 13.3813 15.6875 12.2781V10.375L14.9313 9.87187C14.5125 9.59375 14.1688 9.3625 14.1625 9.35938C14.1594 9.35625 14.125 9.25 14.0906 9.12187C14.0563 8.99375 13.9781 8.79063 13.9219 8.67188C13.8438 8.50938 13.825 8.44688 13.8531 8.42812C13.875 8.41563 14.0188 8.33437 14.1719 8.24687C14.925 7.82188 15.45 7.27812 15.6156 6.75938C15.6625 6.60938 15.6625 6.59375 15.6125 6.51875L15.5625 6.4375H8.50001H1.43751L1.38751 6.51875ZM12.7938 7.47187C13.0313 7.6125 13.5625 8.11875 13.6781 8.31875L13.7438 8.43125L13.6 8.49687L13.4531 8.5625L13.3781 8.45937C13.2156 8.24687 12.7844 7.85313 12.575 7.73125C12.4031 7.62812 12.3563 7.5875 12.35 7.51875C12.325 7.30937 12.4875 7.29375 12.7938 7.47187ZM14.1313 9.46875C14.1438 9.52812 14.1656 9.85625 14.175 10.1937C14.1969 10.8 14.2 10.8125 14.2719 10.8594C14.4625 10.9844 14.5281 11.2938 14.4063 11.4937C14.2219 11.7938 13.7781 11.7938 13.5938 11.4937C13.4688 11.2906 13.5375 10.9844 13.7344 10.8563L13.8156 10.8031L13.8094 10.1188C13.8031 9.48125 13.8063 9.43125 13.8625 9.39062C13.8938 9.36562 13.9625 9.34687 14.0156 9.35313C14.0938 9.35938 14.1125 9.375 14.1313 9.46875Z" fill="white"/>
<path d="M2.78438 10.3625C2.24063 10.5094 1.775 10.9719 1.6125 11.5281C1.54063 11.7687 1.54063 12.7312 1.6125 12.9719C1.78437 13.5562 2.29375 14.0375 2.86563 14.1594C2.97812 14.1812 3.19063 14.1906 3.42188 14.1812C3.73438 14.1687 3.84687 14.15 4.09375 14.0656C4.80313 13.8281 5.33125 13.3656 5.65938 12.7031C5.83125 12.35 5.9 12.1156 5.92812 11.7875L5.94688 11.5625H6.25313H6.5625V11.7C6.5625 11.8937 6.64062 12.25 6.74062 12.4937C7.0125 13.175 7.56563 13.7344 8.23438 14.0031C8.36562 14.0562 8.56875 14.1187 8.68125 14.1437C8.95937 14.2 9.47188 14.2 9.70312 14.1406C10.2625 13.9937 10.7438 13.5125 10.8906 12.9531C10.9563 12.6969 10.9563 11.8031 10.8906 11.5469C10.7406 10.9719 10.2125 10.4625 9.64688 10.3437C9.5375 10.3219 9.11875 10.3125 8.45 10.3187L7.42188 10.3281L7.2125 10.4312C6.9625 10.5531 6.75625 10.7719 6.65313 11.0156L6.58125 11.1875H6.25H5.91875L5.84688 11.0156C5.74375 10.7719 5.5375 10.5531 5.2875 10.4312L5.07812 10.3281L4.01562 10.3219C3.1625 10.3156 2.91875 10.325 2.78438 10.3625Z" fill="white"/>
</svg>
