<svg width="14" height="8" viewBox="0 0 14 8" fill="none" xmlns="http://www.w3.org/2000/svg">
<path d="M6.8975 6.60267H7.25283V6.08267C7.56394 6.03956 7.82772 5.91667 8.04416 5.714C8.26105 5.51178 8.3695 5.25067 8.3695 4.93067C8.3695 4.65333 8.25839 4.42133 8.03616 4.23467C7.81394 4.048 7.55839 3.89378 7.2695 3.772V2.42333C7.3975 2.44778 7.50839 2.50111 7.60216 2.58333C7.6955 2.66556 7.76327 2.75778 7.8055 2.86L8.27683 2.66133C8.19061 2.46222 8.05705 2.29889 7.87616 2.17133C7.69527 2.04333 7.49305 1.95889 7.2695 1.918V1.398H6.8975V1.914C6.58639 1.94511 6.32261 2.05244 6.10616 2.236C5.88928 2.41956 5.78083 2.66311 5.78083 2.96667C5.78083 3.24978 5.89483 3.48978 6.12283 3.68667C6.35083 3.88356 6.60905 4.04178 6.8975 4.16133V5.568C6.6855 5.52933 6.51216 5.44556 6.3775 5.31667C6.24239 5.18778 6.14816 5.03444 6.09483 4.85667L5.62683 5.05533C5.71572 5.33622 5.87127 5.56733 6.0935 5.74867C6.31572 5.92911 6.58372 6.04156 6.8975 6.086V6.60267ZM7.2695 5.564V4.29733C7.42505 4.36844 7.56305 4.454 7.6835 4.554C7.80394 4.654 7.86416 4.78778 7.86416 4.95533C7.86416 5.14644 7.80905 5.28667 7.69883 5.376C7.58861 5.46533 7.4455 5.528 7.2695 5.564ZM6.8975 3.61933C6.7495 3.54644 6.61061 3.46044 6.48083 3.36133C6.35105 3.26222 6.28616 3.13067 6.28616 2.96667C6.28616 2.78889 6.34905 2.65889 6.47483 2.57667C6.60016 2.494 6.74105 2.44156 6.8975 2.41933V3.61933ZM4.3335 8C3.21927 8 2.27394 7.61222 1.4975 6.83667C0.721052 6.06111 0.333052 5.11644 0.333496 4.00267C0.333496 2.88889 0.721497 1.94333 1.4975 1.166C2.27394 0.388667 3.21927 0 4.3335 0H9.66683C10.7811 0 11.7264 0.387778 12.5028 1.16333C13.2793 1.93889 13.6673 2.88356 13.6668 3.99733C13.6668 5.11111 13.2788 6.05667 12.5028 6.834C11.7264 7.61133 10.7811 8 9.66683 8H4.3335Z" fill="white"/>
</svg>
