
<svg width="16" height="16" viewBox="0 0 16 16" fill="none" xmlns="http://www.w3.org/2000/svg">
<path d="M4.10938 0.596899C3.37188 0.77815 2.74375 1.28752 2.40625 1.9844C2.18125 2.4469 2.14062 2.61565 2.14062 3.1719C2.14062 3.56877 2.15313 3.67815 2.2125 3.88752C2.30313 4.1969 2.4625 4.52502 2.6375 4.7594C2.82812 5.01252 7.875 10.1219 7.95937 10.1438C7.99688 10.1531 8.04688 10.15 8.075 10.1344C8.1 10.1219 9.275 8.94065 10.6875 7.51565C13.4125 4.7594 13.4875 4.67502 13.6844 4.18752C13.8938 3.6594 13.9344 2.96252 13.7812 2.43752C13.5219 1.53127 12.775 0.8094 11.875 0.593774C11.55 0.518774 10.9875 0.509399 10.6938 0.578149C10.3938 0.650024 10.0344 0.800024 9.82188 0.946899C9.7125 1.01877 9.3125 1.39065 8.93125 1.7719C7.95 2.7469 8.05 2.7469 7.07812 1.77815C6.6625 1.3594 6.30625 1.0344 6.17812 0.946899C5.93438 0.784399 5.58438 0.640649 5.28437 0.575025C4.98125 0.512525 4.4125 0.521899 4.10938 0.596899ZM7.43125 4.07815C7.50313 4.13752 7.56875 4.27815 7.73438 4.71877C7.85 5.02815 7.95625 5.28127 7.96563 5.28127C7.97813 5.28127 8.04063 5.09377 8.10625 4.86252C8.24062 4.38752 8.30938 4.28752 8.525 4.2594C8.7375 4.23127 8.81875 4.30627 9.03438 4.72502L9.22188 5.09377H9.99062C10.7406 5.09377 10.7625 5.0969 10.8344 5.16252C10.9688 5.28752 10.8969 5.53127 10.7094 5.57815C10.6719 5.58752 10.2781 5.59377 9.8375 5.58752C8.9 5.57502 8.93125 5.58752 8.74375 5.2344C8.68125 5.11565 8.61875 5.01252 8.60313 5.0094C8.59063 5.00315 8.52187 5.20002 8.45312 5.44065C8.32188 5.91877 8.24688 6.03752 8.0625 6.07815C7.93438 6.10627 7.7625 6.04377 7.69375 5.94377C7.65938 5.8969 7.5375 5.60315 7.42188 5.28752C7.30312 4.97502 7.19688 4.72815 7.18438 4.74065C7.17188 4.75627 7.10938 4.8969 7.04688 5.05315C6.83437 5.58752 6.82188 5.59377 5.95312 5.59377C5.16875 5.59377 5.09375 5.56877 5.09375 5.31877C5.09375 5.27502 5.125 5.20627 5.1625 5.16565C5.22813 5.09377 5.24063 5.09377 5.8625 5.09377H6.49375L6.67188 4.65002C6.76875 4.40627 6.86875 4.17815 6.89375 4.14377C7.00625 3.98127 7.27813 3.95002 7.43125 4.07815Z" fill="#318130"/>
<path d="M3.26562 9.14064C3.2 9.20626 3.1875 9.24376 3.1875 9.41564V9.61876L3.49375 9.63126C3.7625 9.64376 3.82188 9.65626 4.01562 9.75001C4.1375 9.80939 4.24375 9.86251 4.25937 9.86876C4.27188 9.87501 4.28125 9.73126 4.28125 9.54689C4.28125 9.23751 4.275 9.21251 4.20312 9.14064C4.13125 9.06564 4.10938 9.06251 3.73438 9.06251C3.35938 9.06251 3.3375 9.06564 3.26562 9.14064Z" fill="#318130"/>
<path d="M11.7969 9.14064C11.7313 9.20626 11.7188 9.24376 11.7188 9.41564V9.61876L12.025 9.63126C12.3 9.64064 12.3562 9.65314 12.55 9.75001C12.6687 9.80939 12.775 9.86251 12.7906 9.86876C12.8031 9.87501 12.8125 9.73126 12.8125 9.54689C12.8125 9.23751 12.8062 9.21251 12.7344 9.14064C12.6625 9.06564 12.6406 9.06251 12.2656 9.06251C11.8906 9.06251 11.8688 9.06564 11.7969 9.14064Z" fill="#318130"/>
<path d="M3.1875 12.7156V15.3156L3.26562 15.3906C3.3375 15.4656 3.35938 15.4688 3.73438 15.4688C4.10938 15.4688 4.13125 15.4656 4.20312 15.3906L4.28125 15.3156V13.0531C4.28125 11.4188 4.27188 10.7625 4.24375 10.6844C4.18437 10.5031 4.0375 10.3188 3.88438 10.2281C3.7625 10.1594 3.69375 10.1406 3.4625 10.1313L3.1875 10.1188V12.7156Z" fill="#318130"/>
<path d="M11.7188 12.7156V15.3156L11.7969 15.3906C11.8688 15.4656 11.8906 15.4688 12.2656 15.4688C12.6406 15.4688 12.6625 15.4656 12.7344 15.3906L12.8125 15.3156V13.0531C12.8125 10.5938 12.8156 10.65 12.6375 10.4156C12.5969 10.3594 12.4938 10.275 12.4156 10.2281C12.2938 10.1594 12.225 10.1406 11.9938 10.1313L11.7188 10.1188V12.7156Z" fill="#318130"/>
<path d="M1.67188 10.7344C1.60625 10.7969 1.59375 10.8375 1.59375 11.0094V11.2094L1.89375 11.225C2.16875 11.2406 2.21562 11.2531 2.44063 11.3688L2.6875 11.4938V11.1656C2.6875 10.8469 2.68438 10.8375 2.59688 10.7469C2.50625 10.6563 2.50313 10.6563 2.125 10.6563C1.76562 10.6563 1.74375 10.6594 1.67188 10.7344Z" fill="#318130"/>
<path d="M13.4031 10.7469C13.3219 10.8281 13.3125 10.8594 13.3125 11.0281V11.2187H13.5438C13.8094 11.2187 14.1125 11.3 14.2906 11.4219L14.4062 11.5031V11.1562C14.4062 10.8312 14.4031 10.8062 14.3281 10.7344C14.2563 10.6594 14.2344 10.6562 13.875 10.6562C13.4969 10.6562 13.4938 10.6562 13.4031 10.7469Z" fill="#318130"/>
<path d="M0.340625 11.8094C0.25 11.9 0.25 11.9062 0.25 12.2656C0.25 12.625 0.25 12.6312 0.340625 12.7219L0.43125 12.8125H0.8875H1.34375V12.2656V11.7188H0.8875H0.43125L0.340625 11.8094Z" fill="#318130"/>
<path d="M1.59375 12.7156V13.7219L1.67188 13.7969C1.74375 13.8719 1.76562 13.875 2.1375 13.875H2.525L2.60625 13.7781L2.6875 13.6813V13.0656C2.6875 12.3531 2.65625 12.1938 2.47813 11.9969C2.30625 11.8094 2.15312 11.7406 1.85313 11.725L1.59375 11.7094V12.7156Z" fill="#318130"/>
<path d="M4.78125 12.2656V12.8125H8H11.2188V12.2656V11.7188H8H4.78125V12.2656Z" fill="#318130"/>
<path d="M13.3125 12.7V13.6812L13.3938 13.7781L13.475 13.875H13.8625C14.2344 13.875 14.2563 13.8719 14.3281 13.7969L14.4062 13.7219V13.0219C14.4062 12.3344 14.4062 12.3219 14.325 12.1625C14.1781 11.8656 13.9156 11.7188 13.525 11.7188H13.3125V12.7Z" fill="#318130"/>
<path d="M14.9062 12.2656V12.8125H15.2375C15.5594 12.8125 15.5688 12.8094 15.6594 12.7219C15.75 12.6312 15.75 12.625 15.75 12.2656C15.75 11.9062 15.75 11.9 15.6594 11.8094C15.5688 11.7219 15.5594 11.7188 15.2375 11.7188H14.9062V12.2656Z" fill="#318130"/>
</svg>
