
<svg width="10" height="14" viewBox="0 0 10 14" fill="none" xmlns="http://www.w3.org/2000/svg">
<path d="M1.5 0.5C1.5 0.367392 1.44732 0.240215 1.35355 0.146447C1.25979 0.0526784 1.13261 0 1 0C0.867392 0 0.740215 0.0526784 0.646447 0.146447C0.552679 0.240215 0.5 0.367392 0.5 0.5V3.5C0.499882 4.07633 0.698892 4.63499 1.06335 5.08145C1.4278 5.52791 1.93532 5.83473 2.5 5.95V13.5C2.5 13.6326 2.55268 13.7598 2.64645 13.8536C2.74021 13.9473 2.86739 14 3 14C3.13261 14 3.25979 13.9473 3.35355 13.8536C3.44732 13.7598 3.5 13.6326 3.5 13.5V5.95C4.06468 5.83473 4.5722 5.52791 4.93665 5.08145C5.30111 4.63499 5.50012 4.07633 5.5 3.5V0.5C5.5 0.367392 5.44732 0.240215 5.35355 0.146447C5.25979 0.0526784 5.13261 0 5 0C4.86739 0 4.74021 0.0526784 4.64645 0.146447C4.55268 0.240215 4.5 0.367392 4.5 0.5V3.5C4.50016 3.81033 4.40407 4.11306 4.22497 4.36649C4.04587 4.61992 3.79258 4.81156 3.5 4.915V0.5C3.5 0.367392 3.44732 0.240215 3.35355 0.146447C3.25979 0.0526784 3.13261 0 3 0C2.86739 0 2.74021 0.0526784 2.64645 0.146447C2.55268 0.240215 2.5 0.367392 2.5 0.5V4.915C2.20742 4.81156 1.95413 4.61992 1.77503 4.36649C1.59593 4.11306 1.49984 3.81033 1.5 3.5V0.5ZM8.5 13.5V7H7C6.86739 7 6.74021 6.94732 6.64645 6.85355C6.55268 6.75979 6.5 6.63261 6.5 6.5V2.5C6.5 1.837 6.826 1.217 7.271 0.771C7.717 0.326 8.337 0 9 0C9.13261 0 9.25979 0.0526784 9.35355 0.146447C9.44732 0.240215 9.5 0.367392 9.5 0.5V13.5C9.5 13.6326 9.44732 13.7598 9.35355 13.8536C9.25979 13.9473 9.13261 14 9 14C8.86739 14 8.74021 13.9473 8.64645 13.8536C8.55268 13.7598 8.5 13.6326 8.5 13.5Z" fill="white"/>
</svg>
