<svg width="14" height="9" viewBox="0 0 14 9" fill="none" xmlns="http://www.w3.org/2000/svg">
<path d="M4.50195 0C3.30848 0 2.16389 0.474106 1.31997 1.31802C0.476059 2.16193 0.00195313 3.30653 0.00195312 4.5C0.00195313 5.69347 0.476059 6.83807 1.31997 7.68198C2.16389 8.52589 3.30848 9 4.50195 9H9.50995C10.7034 9 11.848 8.52589 12.6919 7.68198C13.5358 6.83807 14.01 5.69347 14.01 4.5C14.01 3.30653 13.5358 2.16193 12.6919 1.31802C11.848 0.474106 10.7034 0 9.50995 0H4.50195ZM2.50395 4.5C2.50395 4.36739 2.55663 4.24021 2.6504 4.14645C2.74417 4.05268 2.87135 4 3.00395 4H4.00395V3C4.00395 2.86739 4.05663 2.74021 4.1504 2.64645C4.24417 2.55268 4.37135 2.5 4.50395 2.5C4.63656 2.5 4.76374 2.55268 4.85751 2.64645C4.95127 2.74021 5.00395 2.86739 5.00395 3V4H6.00395C6.13656 4 6.26374 4.05268 6.35751 4.14645C6.45127 4.24021 6.50395 4.36739 6.50395 4.5C6.50395 4.63261 6.45127 4.75979 6.35751 4.85355C6.26374 4.94732 6.13656 5 6.00395 5H5.00395V6C5.00395 6.13261 4.95127 6.25979 4.85751 6.35355C4.76374 6.44732 4.63656 6.5 4.50395 6.5C4.37135 6.5 4.24417 6.44732 4.1504 6.35355C4.05663 6.25979 4.00395 6.13261 4.00395 6V5H3.00395C2.87135 5 2.74417 4.94732 2.6504 4.85355C2.55663 4.75979 2.50395 4.63261 2.50395 4.5ZM9.99995 6C9.99995 6.26522 9.8946 6.51957 9.70706 6.70711C9.51952 6.89464 9.26517 7 8.99995 7C8.73474 7 8.48038 6.89464 8.29285 6.70711C8.10531 6.51957 7.99995 6.26522 7.99995 6C7.99995 5.73478 8.10531 5.48043 8.29285 5.29289C8.48038 5.10536 8.73474 5 8.99995 5C9.26517 5 9.51952 5.10536 9.70706 5.29289C9.8946 5.48043 9.99995 5.73478 9.99995 6ZM9.99995 4C9.73474 4 9.48038 3.89464 9.29285 3.70711C9.10531 3.51957 8.99995 3.26522 8.99995 3C8.99995 2.73478 9.10531 2.48043 9.29285 2.29289C9.48038 2.10536 9.73474 2 9.99995 2C10.2652 2 10.5195 2.10536 10.7071 2.29289C10.8946 2.48043 11 2.73478 11 3C11 3.26522 10.8946 3.51957 10.7071 3.70711C10.5195 3.89464 10.2652 4 9.99995 4Z" fill="#318130"/>
</svg>
