<svg width="17" height="16" viewBox="0 0 17 16" fill="none" xmlns="http://www.w3.org/2000/svg">
<path d="M9.20714 1.5C9.01962 1.31253 8.76531 1.20721 8.50014 1.20721C8.23498 1.20721 7.98067 1.31253 7.79314 1.5L1.14614 8.146C1.09966 8.19249 1.06278 8.24768 1.03762 8.30842C1.01246 8.36916 0.999512 8.43426 0.999512 8.5C0.999512 8.56574 1.01246 8.63085 1.03762 8.69158C1.06278 8.75232 1.09966 8.80751 1.14614 8.854C1.24003 8.94789 1.36737 9.00063 1.50014 9.00063C1.56589 9.00063 1.63099 8.98768 1.69173 8.96252C1.75247 8.93737 1.80766 8.90049 1.85414 8.854L8.50014 2.207L15.1461 8.854C15.24 8.94789 15.3674 9.00063 15.5001 9.00063C15.6329 9.00063 15.7603 8.94789 15.8541 8.854C15.948 8.76011 16.0008 8.63278 16.0008 8.5C16.0008 8.36723 15.948 8.23989 15.8541 8.146L13.5001 5.793V2.5C13.5001 2.36739 13.4475 2.24022 13.3537 2.14645C13.2599 2.05268 13.1328 2 13.0001 2H12.0001C11.8675 2 11.7404 2.05268 11.6466 2.14645C11.5528 2.24022 11.5001 2.36739 11.5001 2.5V3.793L9.20714 1.5Z" fill="#318130"/>
<path d="M8.5 3.29303L14.5 9.29303V13.5C14.5 13.8979 14.342 14.2794 14.0607 14.5607C13.7794 14.842 13.3978 15 13 15H4C3.60218 15 3.22064 14.842 2.93934 14.5607C2.65804 14.2794 2.5 13.8979 2.5 13.5V9.29303L8.5 3.29303Z" fill="#318130"/>
</svg>
