<svg width="12" height="12" viewBox="0 0 12 12" fill="none" xmlns="http://www.w3.org/2000/svg">
<path d="M6.59984 0.166748C7.25609 0.168498 7.58917 0.171998 7.87676 0.180165L7.98992 0.184248C8.12059 0.188915 8.24951 0.194748 8.40526 0.201748C9.02592 0.230915 9.44942 0.328915 9.82101 0.472998C10.206 0.621165 10.5303 0.821831 10.8547 1.14558C11.1513 1.43719 11.3808 1.78992 11.5273 2.17925C11.6713 2.55083 11.7693 2.97433 11.7985 3.59558C11.8055 3.75075 11.8113 3.87966 11.816 4.01091L11.8195 4.12408C11.8283 4.41108 11.8318 4.74416 11.8329 5.40041L11.8335 5.83558V6.59975C11.8349 7.02523 11.8305 7.45072 11.8201 7.87608L11.8166 7.98925C11.8119 8.1205 11.8061 8.24941 11.7991 8.40458C11.7699 9.02583 11.6708 9.44875 11.5273 9.82091C11.3812 10.2105 11.1517 10.5633 10.8547 10.8546C10.563 11.1511 10.2103 11.3806 9.82101 11.5272C9.44942 11.6712 9.02592 11.7692 8.40526 11.7984C8.26684 11.8049 8.1284 11.8108 7.98992 11.8159L7.87676 11.8194C7.58917 11.8276 7.25609 11.8317 6.59984 11.8328L6.16467 11.8334H5.40109C4.97541 11.8349 4.54973 11.8304 4.12417 11.82L4.01101 11.8165C3.87253 11.8113 3.73408 11.8052 3.59567 11.7984C2.97501 11.7692 2.55151 11.6712 2.17934 11.5272C1.79006 11.381 1.43747 11.1514 1.14626 10.8546C0.849367 10.5631 0.619638 10.2103 0.473091 9.82091C0.329007 9.44933 0.231007 9.02583 0.20184 8.40458C0.195341 8.26617 0.189508 8.12772 0.18434 7.98925L0.181424 7.87608C0.170674 7.45072 0.165813 7.02524 0.16684 6.59975V5.40041C0.165212 4.97493 0.169491 4.54945 0.179674 4.12408L0.183757 4.01091C0.188424 3.87966 0.194257 3.75075 0.201257 3.59558C0.230424 2.97433 0.328424 2.55141 0.472507 2.17925C0.61899 1.78953 0.849177 1.43668 1.14684 1.14558C1.43798 0.848941 1.79034 0.619407 2.17934 0.472998C2.55151 0.328915 2.97442 0.230915 3.59567 0.201748C3.75084 0.194748 3.88034 0.188915 4.01101 0.184248L4.12417 0.180748C4.54954 0.170384 4.97502 0.165911 5.40051 0.167331L6.59984 0.166748ZM6.00017 3.08341C5.22663 3.08341 4.48476 3.39071 3.93778 3.93769C3.3908 4.48467 3.08351 5.22653 3.08351 6.00008C3.08351 6.77363 3.3908 7.51549 3.93778 8.06248C4.48476 8.60946 5.22663 8.91675 6.00017 8.91675C6.77372 8.91675 7.51559 8.60946 8.06257 8.06248C8.60955 7.51549 8.91684 6.77363 8.91684 6.00008C8.91684 5.22653 8.60955 4.48467 8.06257 3.93769C7.51559 3.39071 6.77372 3.08341 6.00017 3.08341ZM6.00017 4.25008C6.22999 4.25004 6.45756 4.29527 6.66989 4.38318C6.88223 4.47109 7.07517 4.59996 7.2377 4.76244C7.40023 4.92491 7.52916 5.11781 7.61714 5.33012C7.70512 5.54242 7.75043 5.76998 7.75046 5.99979C7.7505 6.2296 7.70528 6.45717 7.61737 6.66951C7.52946 6.88184 7.40058 7.07478 7.23811 7.23731C7.07563 7.39984 6.88274 7.52878 6.67043 7.61676C6.45813 7.70474 6.23057 7.75004 6.00076 7.75008C5.53663 7.75008 5.09151 7.56571 4.76332 7.23752C4.43513 6.90933 4.25076 6.46421 4.25076 6.00008C4.25076 5.53595 4.43513 5.09083 4.76332 4.76264C5.09151 4.43446 5.53663 4.25008 6.00076 4.25008M9.06326 2.20841C8.86987 2.20841 8.6844 2.28524 8.54766 2.42198C8.41091 2.55873 8.33409 2.74419 8.33409 2.93758C8.33409 3.13097 8.41091 3.31643 8.54766 3.45318C8.6844 3.58993 8.86987 3.66675 9.06326 3.66675C9.25664 3.66675 9.44211 3.58993 9.57886 3.45318C9.7156 3.31643 9.79242 3.13097 9.79242 2.93758C9.79242 2.74419 9.7156 2.55873 9.57886 2.42198C9.44211 2.28524 9.25664 2.20841 9.06326 2.20841Z" fill="white"/>
</svg>
