<svg width="16" height="16" viewBox="0 0 16 16" fill="none" xmlns="http://www.w3.org/2000/svg">
<g clip-path="url(#clip0_760_1513)">
<path d="M8.57178 15.4274V9.42741C8.57178 9.04853 8.72229 8.68517 8.9902 8.41726C9.25811 8.14935 9.62147 7.99884 10.0003 7.99884C10.3792 7.99884 10.7426 8.14935 11.0105 8.41726C11.2784 8.68517 11.4289 9.04853 11.4289 9.42741V12.5703H13.7146C14.3208 12.5703 14.9022 12.8111 15.3309 13.2397C15.7595 13.6684 16.0003 14.2498 16.0003 14.856V15.4274" fill="white"/>
<path fill-rule="evenodd" clip-rule="evenodd" d="M0.0356451 5.05599C0.0369327 4.32813 0.195391 3.60914 0.500185 2.94818C0.804979 2.28721 1.24892 1.69986 1.80165 1.2263C2.35438 0.752734 3.00286 0.404121 3.70275 0.204297C4.40263 0.00447347 5.13742 -0.0418469 5.85686 0.0685036C6.5763 0.178854 7.26343 0.443272 7.87125 0.843677C8.47908 1.24408 8.99326 1.77103 9.37864 2.38849C9.76403 3.00594 10.0115 3.69934 10.1042 4.42127C10.1969 5.1432 10.1326 5.87663 9.91564 6.57141C9.17283 6.59341 8.46782 6.90396 7.95019 7.43716C7.43256 7.97037 7.14304 8.68428 7.14307 9.42741V9.6777C6.37329 10.0197 5.53023 10.164 4.69051 10.0973C3.8508 10.0307 3.04106 9.75524 2.33487 9.29603C1.62869 8.83683 1.04846 8.20842 0.646919 7.46793C0.245377 6.72744 0.0352535 5.89834 0.0356451 5.05599ZM5.0905 1.35541C5.48593 1.35541 5.80479 1.67541 5.80479 2.0697V2.39313C6.08577 2.4575 6.34592 2.59183 6.56111 2.78364C6.77629 2.97544 6.93952 3.21851 7.03564 3.49027C7.06694 3.57874 7.0805 3.67252 7.07555 3.76623C7.0706 3.85994 7.04725 3.95176 7.00681 4.03645C6.96638 4.12114 6.90966 4.19703 6.8399 4.2598C6.77013 4.32257 6.68869 4.37098 6.60022 4.40227C6.51174 4.43356 6.41797 4.44712 6.32426 4.44218C6.23054 4.43723 6.13872 4.41387 6.05404 4.37344C5.96935 4.333 5.89346 4.27629 5.83069 4.20652C5.76792 4.13676 5.71951 4.05532 5.68822 3.96684C5.66883 3.91202 5.63292 3.86455 5.58544 3.83098C5.53795 3.79741 5.48123 3.7794 5.42307 3.77941H4.65164C4.60899 3.78015 4.56808 3.79646 4.53661 3.82527C4.50514 3.85408 4.48529 3.8934 4.4808 3.93582C4.4763 3.97824 4.48747 4.02085 4.5122 4.05561C4.53693 4.09037 4.57352 4.11489 4.61507 4.12456L5.78879 4.38056C6.16824 4.46399 6.50799 4.67409 6.75215 4.97629C6.99632 5.27849 7.13036 5.65479 7.13222 6.0433C7.13408 6.43181 7.00366 6.80938 6.7624 7.11391C6.52114 7.41843 6.18342 7.63178 5.80479 7.71884V8.04341C5.80479 8.23285 5.72953 8.41454 5.59558 8.54849C5.46162 8.68244 5.27994 8.7577 5.0905 8.7577C4.90106 8.7577 4.71938 8.68244 4.58543 8.54849C4.45147 8.41454 4.37622 8.23285 4.37622 8.04341V7.71999C4.09558 7.65514 3.8358 7.52063 3.62087 7.32888C3.40595 7.13712 3.2428 6.8943 3.1465 6.62284C3.0833 6.44416 3.09368 6.2477 3.17533 6.07666C3.25699 5.90563 3.40325 5.77404 3.58193 5.71084C3.76061 5.64765 3.95708 5.65802 4.12811 5.73968C4.29914 5.82133 4.43073 5.96759 4.49393 6.14627C4.51346 6.201 4.5494 6.24838 4.59686 6.28192C4.64431 6.31547 4.70096 6.33355 4.75907 6.3337H5.42307C5.49153 6.33201 5.55705 6.3055 5.60741 6.2591C5.65777 6.21269 5.68955 6.14956 5.69682 6.08147C5.70409 6.01338 5.68636 5.94496 5.64693 5.88897C5.6075 5.83298 5.54906 5.79323 5.4825 5.77713L4.30993 5.51999C3.94672 5.44082 3.62231 5.23792 3.39217 4.94598C3.16204 4.65404 3.0405 4.29122 3.04833 3.91956C3.05616 3.54791 3.19288 3.19053 3.4351 2.90854C3.67732 2.62656 4.01 2.4375 4.37622 2.3737V2.0697C4.37622 1.67427 4.69622 1.35541 5.0905 1.35541ZM8.57164 9.42741V15.9988H16.0002V14.856C16.0002 14.2498 15.7594 13.6684 15.3307 13.2397C14.9021 12.8111 14.3207 12.5703 13.7145 12.5703H11.4288V9.42741C11.4288 9.04853 11.2783 8.68517 11.0104 8.41726C10.7425 8.14935 10.3791 7.99884 10.0002 7.99884C9.62134 7.99884 9.25797 8.14935 8.99006 8.41726C8.72215 8.68517 8.57164 9.04853 8.57164 9.42741Z" fill="white"/>
</g>
<defs>
<clipPath id="clip0_760_1513">
<rect width="16" height="16" fill="white"/>
</clipPath>
</defs>
</svg>
