<svg width="13" height="14" viewBox="0 0 13 14" fill="none" xmlns="http://www.w3.org/2000/svg">
<path d="M11.7178 3.24598L5.58678 5.23798C5.51482 5.28434 5.4322 5.31154 5.34678 5.31698L3.24078 5.99998H11.9998C12.1324 5.99998 12.2596 6.05265 12.3533 6.14642C12.4471 6.24019 12.4998 6.36737 12.4998 6.49998V11.5C12.4998 12.163 12.2364 12.7989 11.7675 13.2677C11.2987 13.7366 10.6628 14 9.99978 14H2.99978C2.33674 14 1.70085 13.7366 1.23201 13.2677C0.76317 12.7989 0.499778 12.163 0.499778 11.5V6.49998C0.499778 6.39398 0.532778 6.29498 0.589778 6.21298L0.394778 5.61098C0.189939 4.98042 0.243955 4.29433 0.544946 3.7036C0.845936 3.11287 1.36925 2.66589 1.99978 2.46098L8.65678 0.297976C9.28733 0.0931372 9.97343 0.147154 10.5642 0.448144C11.1549 0.749134 11.6019 1.27245 11.8068 1.90298L12.0388 2.61598C12.0797 2.74209 12.0689 2.87931 12.0087 2.99745C11.9485 3.1156 11.8439 3.20499 11.7178 3.24598ZM7.97378 3.41098L9.25878 1.18498C9.15923 1.19652 9.06108 1.21796 8.96578 1.24898L7.72078 1.65298L6.41278 3.91798L7.97378 3.41098ZM10.2688 1.43198C10.2626 1.44458 10.2559 1.45692 10.2488 1.46898L9.39478 2.94898L10.9328 2.44898L10.8558 2.21198C10.753 1.89358 10.5463 1.61891 10.2688 1.43198ZM6.29878 2.11498L4.73878 2.62198L3.42978 4.88698L4.98978 4.37998L6.29878 2.11498ZM1.42278 5.53998L2.00978 5.34998L3.31678 3.08398L2.30878 3.41198C1.93046 3.53492 1.61647 3.80311 1.43588 4.15755C1.25528 4.51199 1.22287 4.92364 1.34578 5.30198L1.42278 5.53998Z" fill="white"/>
</svg>
