<svg width="16" height="16" viewBox="0 0 16 16" fill="none" xmlns="http://www.w3.org/2000/svg">
<path fill-rule="evenodd" clip-rule="evenodd" d="M12.4474 2.13865C12.6384 2.1068 12.834 2.11692 13.0207 2.16832C13.2073 2.21971 13.3806 2.31114 13.5283 2.43625C13.6761 2.56136 13.7948 2.71715 13.8763 2.89279C13.9578 3.06843 14 3.2597 14.0001 3.45331V11.3333C13.9999 11.9203 13.8061 12.4909 13.4487 12.9565C13.0913 13.4221 12.5902 13.7568 12.0231 13.9086C11.4561 14.0605 10.8548 14.021 10.3126 13.7963C9.77028 13.5715 9.31729 13.1742 9.02384 12.6658C8.7304 12.1574 8.6129 11.5664 8.68957 10.9844C8.76624 10.4025 9.03279 9.86204 9.44788 9.44699C9.86298 9.03194 10.4034 8.76546 10.9854 8.68885C11.5674 8.61225 12.1584 8.72982 12.6667 9.02331V6.11998L6.00006 7.23131V12C6.00006 12.04 5.99673 12.078 5.99006 12.116C6.03792 12.6286 5.91488 13.1427 5.64009 13.5781C5.36531 14.0136 4.95422 14.3459 4.47087 14.5233C3.98753 14.7007 3.45907 14.7133 2.96784 14.5591C2.4766 14.4048 2.05018 14.0924 1.755 13.6706C1.45983 13.2487 1.31248 12.741 1.33592 12.2267C1.35935 11.7123 1.55225 11.2202 1.88457 10.8269C2.21688 10.4336 2.66994 10.1613 3.17317 10.0524C3.67639 9.94344 4.20152 10.004 4.66673 10.2246V4.56465C4.66669 4.24902 4.77862 3.94362 4.9826 3.70276C5.18659 3.46191 5.4694 3.30123 5.78073 3.24931L12.4474 2.13865ZM6.00006 5.87998L12.6667 4.76865V3.45331L6.00006 4.56465V5.87998Z" fill="white"/>
</svg>
