<svg width="153" height="114" viewBox="0 0 153 114" fill="none" xmlns="http://www.w3.org/2000/svg">
<g id="Group">
<path id="Vector" d="M44.318 19.2204C44.318 19.2204 61.4745 32.2399 87.5567 7.89588C110.72 -13.7234 129.634 20.387 129.766 36.7219C129.938 57.8819 106.602 74.8131 117.927 88.7114C129.251 102.61 95.4689 125.56 77.2618 105.698C54.6129 80.9901 48.4771 101.065 35.5673 101.065C26.3018 101.065 7.27884 78.043 20.1248 60.915C30.9346 46.502 25.0391 41.7187 22.1842 36.7219C18.0659 29.5154 27.8461 9.955 44.318 19.2204Z" fill="#F0E8FC"/>
<g id="Group_2">
<path id="Vector_2" d="M113.196 47.9911C114.118 48.3338 115.126 48.3566 116.084 48.1365C120.102 47.2144 133.915 44.7729 131.514 55.4768C130.992 57.6005 122.902 69.4937 134.423 73.8352C135.267 74.1573 136.16 74.3332 137.063 74.3552C140.61 74.4282 147.64 73.5908 150.582 70.596C154.135 66.9783 150.253 68.6939 150.253 68.6939C150.253 68.6939 136.742 74.5899 131.969 68.3346C131.438 67.6386 131.1 66.6278 131.003 65.7575C130.835 64.2487 131.505 62.2549 132.385 60.5192C133.577 58.1701 139.295 47.6028 126.879 44.5244C124.019 43.8433 119.865 43.2314 114.509 45.4866C111.384 46.802 112.076 47.5752 113.196 47.9911Z" fill="#E0CFF9"/>
<path id="Vector_3" d="M115.961 44.0463L112.364 45.3922C111.123 45.8568 110.493 47.2397 110.958 48.4811L111.136 48.9574C111.601 50.1988 112.984 50.8285 114.225 50.3639L117.821 49.018C119.063 48.5534 119.692 47.1704 119.228 45.929L119.05 45.4527C118.585 44.2114 117.202 43.5817 115.961 44.0463Z" fill="#6611E0"/>
<path id="Vector_4" d="M93.8861 47.941L82.0262 52.3797C81.4055 52.612 81.0907 53.3035 81.323 53.9242L81.3697 54.049C81.602 54.6697 82.2935 54.9845 82.9142 54.7522L94.7741 50.3135C95.3948 50.0812 95.7096 49.3897 95.4773 48.769L95.4306 48.6442C95.1983 48.0235 94.5068 47.7087 93.8861 47.941Z" fill="white"/>
<path id="Vector_5" d="M97.1962 56.7847L85.3363 61.2234C84.7156 61.4557 84.4007 62.1472 84.633 62.7679L84.6797 62.8927C84.912 63.5134 85.6035 63.8283 86.2242 63.596L98.0842 59.1572C98.7049 58.9249 99.0198 58.2334 98.7875 57.6127L98.7407 57.4879C98.5084 56.8672 97.8169 56.5524 97.1962 56.7847Z" fill="white"/>
<path id="Vector_6" d="M108.146 41.905L98.5339 45.5025C97.2925 45.9671 96.6628 47.3501 97.1274 48.5915L100.409 57.3601C100.874 58.6015 102.257 59.2312 103.498 58.7666L113.11 55.1691C114.352 54.7045 114.981 53.3215 114.517 52.0801L111.235 43.3115C110.77 42.0701 109.388 41.4404 108.146 41.905Z" fill="#A370EC"/>
<path id="Vector_7" d="M99.5269 44.2058L89.9147 47.8033C88.6733 48.2679 88.0436 49.6509 88.5082 50.8923L92.4235 61.3536C92.8881 62.595 94.2711 63.2247 95.5125 62.7601L105.125 59.1626C106.366 58.698 106.996 57.315 106.531 56.0736L102.616 45.6123C102.151 44.3709 100.768 43.7412 99.5269 44.2058Z" fill="#C2A0F3"/>
<path id="Vector_8" d="M101.031 42.0828L100.956 42.111C100.128 42.4208 99.7086 43.3428 100.018 44.1704L105.503 58.8256C105.813 59.6532 106.735 60.073 107.563 59.7632L107.638 59.735C108.466 59.4253 108.885 58.5033 108.576 57.6757L103.091 43.0205C102.781 42.1929 101.859 41.7731 101.031 42.0828Z" fill="#6611E0"/>
<path id="Vector_9" d="M3.01826 51.4527C3.01826 51.4527 22.3229 46.0275 19.5202 58.5265C19.0335 60.5042 12.0271 70.6873 20.3727 75.5765C22.1647 76.6264 24.2327 77.0914 26.3095 77.0805C30.0329 77.0612 35.9357 76.3445 38.5875 73.6454C42.1414 70.0276 38.2588 71.7432 38.2588 71.7432C38.2588 71.7432 27.1719 76.3038 21.468 72.6684C19.5204 71.4272 18.6376 69.0238 19.1665 66.7756C19.4368 65.6588 19.8485 64.5811 20.3915 63.5685C21.6319 61.2452 27.3012 50.6521 14.8852 47.5737C12.0251 46.8926 7.8709 46.2807 2.5145 48.5359C-2.8419 50.7911 3.01826 51.4527 3.01826 51.4527Z" fill="#E0CFF9"/>
<path id="Vector_10" d="M41.1832 68.9461L37.5871 70.2921C36.3457 70.7567 35.716 72.1396 36.1806 73.381L36.3589 73.8573C36.8235 75.0987 38.2064 75.7284 39.4478 75.2638L43.044 73.9179C44.2854 73.4533 44.9151 72.0703 44.4505 70.8289L44.2722 70.3526C43.8076 69.1112 42.4246 68.4815 41.1832 68.9461Z" fill="#6611E0"/>
<path id="Vector_11" d="M47.259 63.0298L41.9294 65.0245C40.688 65.4891 40.0583 66.8721 40.5229 68.1135L43.0928 74.9802C43.5574 76.2215 44.9404 76.8513 46.1818 76.3867L51.5115 74.3919C52.7529 73.9273 53.3826 72.5444 52.918 71.303L50.348 64.4363C49.8834 63.1949 48.5004 62.5652 47.259 63.0298Z" fill="#A370EC"/>
<path id="Vector_12" d="M56.1318 57.7427L48.1838 60.7173C46.9424 61.182 46.3127 62.5649 46.7773 63.8063L50.6926 74.2677C51.1572 75.5091 52.5401 76.1388 53.7815 75.6742L61.7296 72.6995C62.971 72.2349 63.6007 70.8519 63.1361 69.6105L59.2208 59.1492C58.7562 57.9078 57.3732 57.2781 56.1318 57.7427Z" fill="#C2A0F3"/>
<path id="Vector_13" d="M57.8156 55.5765L57.7402 55.6047C56.9126 55.9144 56.4928 56.8364 56.8025 57.664L62.2874 72.3192C62.5972 73.1468 63.5192 73.5666 64.3467 73.2569L64.4221 73.2286C65.2497 72.9189 65.6695 71.9969 65.3598 71.1693L59.8749 56.5141C59.5651 55.6866 58.6432 55.2668 57.8156 55.5765Z" fill="#6611E0"/>
<g id="Group_3">
<path id="Vector_14" d="M78.1114 46.2398C77.8252 46.208 77.5624 46.0664 77.3785 45.8448C77.1945 45.6233 77.1037 45.339 77.1252 45.0518L77.7182 34.2198C77.7536 33.5727 78.3 33.0811 78.92 33.1383L79.784 33.2183C80.4041 33.2755 80.848 33.8583 80.7613 34.5008L79.304 45.2528C79.2705 45.5392 79.1278 45.8017 78.9057 45.9855C78.6835 46.1693 78.399 46.2604 78.1114 46.2398Z" fill="#6611E0"/>
<path id="Vector_15" d="M72.9907 47.1739C72.9017 47.2001 72.8084 47.2085 72.7161 47.1985C72.6239 47.1886 72.5345 47.1607 72.453 47.1162C72.3716 47.0717 72.2997 47.0117 72.2415 46.9394C72.1832 46.8672 72.1398 46.7842 72.1137 46.6951L69.9959 39.9571C69.9343 39.7654 69.9513 39.5572 70.043 39.378C70.1348 39.1989 70.2939 39.0635 70.4854 39.0015L71.0337 38.836C71.1278 38.8086 71.2265 38.8009 71.3237 38.8135C71.4209 38.8262 71.5144 38.8588 71.5983 38.9094C71.6823 38.96 71.7548 39.0274 71.8113 39.1075C71.8679 39.1875 71.9072 39.2784 71.9269 39.3744L73.4965 46.278C73.5402 46.4636 73.5125 46.6588 73.4188 46.8248C73.325 46.9909 73.1722 47.1155 72.9907 47.1739Z" fill="#6611E0"/>
<path id="Vector_16" d="M70.133 51.0594C69.7535 51.5295 68.9904 51.5239 68.403 51.0466L57.9734 42.5729C57.3504 42.0667 57.1666 41.2289 57.5691 40.7305L58.1302 40.0355C58.5327 39.5368 59.3595 39.5777 59.949 40.1254L69.8176 49.2942C70.3734 49.8106 70.5124 50.5892 70.133 51.0594Z" fill="#6611E0"/>
</g>
<g id="Group_4">
<path id="Vector_17" d="M74.9537 72.9464C75.2223 73.0502 75.4402 73.2542 75.5615 73.5154C75.6828 73.7766 75.698 74.0747 75.6039 74.3469L72.2641 84.6679C72.0646 85.2844 71.4109 85.6199 70.8259 85.4065L70.0106 85.1087C69.4257 84.895 69.145 84.2179 69.3933 83.6192L73.5482 73.596C73.6537 73.3275 73.8587 73.1101 74.1206 72.989C74.3824 72.868 74.6809 72.8527 74.9537 72.9464Z" fill="#6611E0"/>
<path id="Vector_18" d="M80.1432 73.3509C80.236 73.3483 80.3283 73.364 80.415 73.3972C80.5017 73.4303 80.581 73.4802 80.6484 73.544C80.7158 73.6078 80.7699 73.6842 80.8078 73.7689C80.8457 73.8536 80.8665 73.945 80.869 74.0377L81.1956 81.0933C81.2063 81.2943 81.1367 81.4913 81.0023 81.6411C80.8678 81.7908 80.6794 81.8812 80.4784 81.8922L79.9059 81.9122C79.808 81.9147 79.7105 81.8968 79.6198 81.8598C79.5291 81.8228 79.447 81.7673 79.3787 81.697C79.3105 81.6266 79.2576 81.5429 79.2234 81.451C79.1891 81.3592 79.1743 81.2613 79.1798 81.1634L79.4257 74.088C79.4308 73.8974 79.5074 73.7158 79.6404 73.5792C79.7734 73.4426 79.9529 73.3611 80.1432 73.3509Z" fill="#6611E0"/>
<path id="Vector_19" d="M83.8982 70.3241C84.3852 69.9664 85.1215 70.1667 85.5676 70.7782L93.4872 81.6342C93.9603 82.2828 93.9241 83.1394 93.4072 83.5188L92.6872 84.0474C92.1708 84.4268 91.3818 84.1761 90.9517 83.496L83.7517 72.1108C83.3469 71.47 83.4112 70.6817 83.8982 70.3241Z" fill="#6611E0"/>
</g>
</g>
</g>
</svg>
