<svg width="298" height="341" viewBox="0 0 298 341" fill="none" xmlns="http://www.w3.org/2000/svg">
<rect x="9.27187" y="80.4354" width="182.256" height="261.056" rx="7.5" transform="rotate(-17.5658 9.27187 80.4354)" fill="white" stroke="#B5BCB6"/>
<rect x="24.4685" y="80.3956" width="153" height="234" rx="6" transform="rotate(-17.5658 24.4685 80.3956)" fill="#E5E5E5"/>
<rect x="58.2484" y="54.5666" width="72.708" height="18.8187" rx="3" transform="rotate(-17.5658 58.2484 54.5666)" fill="#2B742D"/>
<circle cx="92.0999" cy="34.2228" r="8.89137" transform="rotate(-17.5658 92.0999 34.2228)" fill="white" stroke="#2B742D" stroke-width="3"/>
<rect x="114.5" y="78.8701" width="182.256" height="261.056" rx="7.5" fill="white" stroke="#B5BCB6"/>
<rect x="130" y="85" width="153" height="234" rx="6" fill="#E5E5E5"/>
<rect x="174" y="69.5702" width="72.708" height="18.8187" rx="3" fill="#2B742D"/>
<circle cx="212.413" cy="60.3914" r="8.89137" fill="white" stroke="#2B742D" stroke-width="3"/>
<path d="M189.904 196.48V208H188.952C188.808 208 188.685 207.976 188.584 207.928C188.483 207.875 188.387 207.789 188.296 207.672L181.968 199.544C181.984 199.699 181.995 199.853 182 200.008C182.011 200.157 182.016 200.296 182.016 200.424V208H180.368V196.48H181.344C181.424 196.48 181.491 196.485 181.544 196.496C181.603 196.501 181.656 196.515 181.704 196.536C181.752 196.557 181.797 196.589 181.84 196.632C181.883 196.675 181.928 196.728 181.976 196.792L188.312 204.928C188.296 204.763 188.283 204.6 188.272 204.44C188.267 204.28 188.264 204.131 188.264 203.992V196.48H189.904ZM195.607 199.712C196.21 199.712 196.754 199.811 197.239 200.008C197.73 200.205 198.146 200.485 198.487 200.848C198.834 201.211 199.101 201.651 199.287 202.168C199.474 202.685 199.567 203.267 199.567 203.912C199.567 204.557 199.474 205.139 199.287 205.656C199.101 206.173 198.834 206.616 198.487 206.984C198.146 207.347 197.73 207.627 197.239 207.824C196.754 208.021 196.21 208.12 195.607 208.12C194.999 208.12 194.45 208.021 193.959 207.824C193.474 207.627 193.058 207.347 192.711 206.984C192.365 206.616 192.098 206.173 191.911 205.656C191.725 205.139 191.631 204.557 191.631 203.912C191.631 203.267 191.725 202.685 191.911 202.168C192.098 201.651 192.365 201.211 192.711 200.848C193.058 200.485 193.474 200.205 193.959 200.008C194.45 199.811 194.999 199.712 195.607 199.712ZM195.607 206.776C196.343 206.776 196.89 206.531 197.247 206.04C197.61 205.544 197.791 204.837 197.791 203.92C197.791 203.003 197.61 202.296 197.247 201.8C196.89 201.299 196.343 201.048 195.607 201.048C194.861 201.048 194.306 201.299 193.943 201.8C193.581 202.296 193.399 203.003 193.399 203.92C193.399 204.837 193.581 205.544 193.943 206.04C194.306 206.531 194.861 206.776 195.607 206.776ZM207.82 208.128C207.143 208.128 206.62 207.939 206.252 207.56C205.89 207.176 205.708 206.637 205.708 205.944V201.192H204.812C204.716 201.192 204.634 201.163 204.564 201.104C204.495 201.04 204.46 200.947 204.46 200.824V200.128L205.78 199.936L206.156 197.576C206.183 197.485 206.228 197.413 206.292 197.36C206.356 197.301 206.442 197.272 206.548 197.272H207.428V199.952H209.692V201.192H207.428V205.824C207.428 206.117 207.5 206.341 207.644 206.496C207.788 206.651 207.98 206.728 208.22 206.728C208.354 206.728 208.468 206.712 208.564 206.68C208.66 206.643 208.743 206.605 208.812 206.568C208.882 206.525 208.94 206.488 208.988 206.456C209.042 206.419 209.092 206.4 209.14 206.4C209.236 206.4 209.314 206.453 209.372 206.56L209.884 207.4C209.618 207.635 209.303 207.816 208.94 207.944C208.578 208.067 208.204 208.128 207.82 208.128ZM215.408 204.432C214.795 204.453 214.277 204.504 213.856 204.584C213.435 204.659 213.093 204.757 212.832 204.88C212.571 204.997 212.381 205.139 212.264 205.304C212.152 205.469 212.096 205.651 212.096 205.848C212.096 206.04 212.125 206.205 212.184 206.344C212.248 206.477 212.333 206.589 212.44 206.68C212.552 206.765 212.68 206.829 212.824 206.872C212.973 206.909 213.136 206.928 213.312 206.928C213.76 206.928 214.144 206.845 214.464 206.68C214.789 206.509 215.104 206.264 215.408 205.944V204.432ZM210.848 200.976C211.771 200.117 212.869 199.688 214.144 199.688C214.613 199.688 215.029 199.765 215.392 199.92C215.76 200.069 216.067 200.283 216.312 200.56C216.563 200.837 216.752 201.168 216.88 201.552C217.013 201.931 217.08 202.352 217.08 202.816V208H216.312C216.147 208 216.021 207.976 215.936 207.928C215.851 207.875 215.779 207.771 215.72 207.616L215.552 206.952C215.344 207.139 215.139 207.307 214.936 207.456C214.733 207.6 214.523 207.723 214.304 207.824C214.091 207.925 213.859 208 213.608 208.048C213.363 208.101 213.091 208.128 212.792 208.128C212.461 208.128 212.152 208.083 211.864 207.992C211.581 207.901 211.336 207.765 211.128 207.584C210.92 207.397 210.755 207.168 210.632 206.896C210.515 206.624 210.456 206.304 210.456 205.936C210.456 205.621 210.539 205.315 210.704 205.016C210.875 204.717 211.152 204.451 211.536 204.216C211.925 203.976 212.435 203.779 213.064 203.624C213.699 203.469 214.48 203.381 215.408 203.36V202.816C215.408 202.229 215.283 201.792 215.032 201.504C214.781 201.216 214.413 201.072 213.928 201.072C213.597 201.072 213.32 201.115 213.096 201.2C212.872 201.28 212.677 201.368 212.512 201.464C212.347 201.56 212.2 201.651 212.072 201.736C211.944 201.816 211.808 201.856 211.664 201.856C211.547 201.856 211.445 201.827 211.36 201.768C211.28 201.704 211.213 201.627 211.16 201.536L210.848 200.976ZM223.967 201.32C223.924 201.395 223.876 201.448 223.823 201.48C223.77 201.512 223.703 201.528 223.623 201.528C223.532 201.528 223.434 201.501 223.327 201.448C223.22 201.389 223.095 201.325 222.951 201.256C222.807 201.187 222.636 201.125 222.439 201.072C222.247 201.013 222.02 200.984 221.759 200.984C221.546 200.984 221.351 201.011 221.175 201.064C221.004 201.112 220.858 201.184 220.735 201.28C220.618 201.371 220.527 201.48 220.463 201.608C220.399 201.731 220.367 201.864 220.367 202.008C220.367 202.2 220.426 202.36 220.543 202.488C220.66 202.616 220.815 202.728 221.007 202.824C221.199 202.915 221.418 202.997 221.663 203.072C221.908 203.147 222.159 203.227 222.415 203.312C222.671 203.397 222.922 203.496 223.167 203.608C223.412 203.72 223.631 203.859 223.823 204.024C224.015 204.184 224.17 204.381 224.287 204.616C224.404 204.845 224.463 205.125 224.463 205.456C224.463 205.84 224.394 206.195 224.255 206.52C224.116 206.845 223.914 207.128 223.647 207.368C223.38 207.608 223.047 207.795 222.647 207.928C222.252 208.061 221.799 208.128 221.287 208.128C221.004 208.128 220.73 208.101 220.463 208.048C220.202 208 219.951 207.933 219.711 207.848C219.476 207.757 219.255 207.651 219.047 207.528C218.844 207.405 218.663 207.272 218.503 207.128L218.903 206.472C218.951 206.392 219.01 206.331 219.079 206.288C219.154 206.24 219.244 206.216 219.351 206.216C219.463 206.216 219.572 206.253 219.679 206.328C219.791 206.397 219.919 206.475 220.063 206.56C220.212 206.645 220.391 206.725 220.599 206.8C220.807 206.869 221.066 206.904 221.375 206.904C221.631 206.904 221.852 206.875 222.039 206.816C222.226 206.752 222.38 206.667 222.503 206.56C222.626 206.453 222.716 206.333 222.775 206.2C222.834 206.061 222.863 205.915 222.863 205.76C222.863 205.552 222.804 205.381 222.687 205.248C222.57 205.115 222.412 205 222.215 204.904C222.023 204.808 221.802 204.723 221.551 204.648C221.306 204.573 221.055 204.493 220.799 204.408C220.543 204.323 220.29 204.224 220.039 204.112C219.794 204 219.572 203.859 219.375 203.688C219.183 203.512 219.028 203.301 218.911 203.056C218.794 202.805 218.735 202.501 218.735 202.144C218.735 201.819 218.799 201.509 218.927 201.216C219.06 200.923 219.252 200.664 219.503 200.44C219.759 200.216 220.071 200.04 220.439 199.912C220.812 199.779 221.242 199.712 221.727 199.712C222.276 199.712 222.775 199.8 223.223 199.976C223.671 200.152 224.047 200.392 224.351 200.696L223.967 201.32ZM227.799 196.16V203.024H228.167C228.285 203.024 228.381 203.008 228.455 202.976C228.53 202.944 228.607 202.877 228.687 202.776L230.975 200.16C231.055 200.053 231.143 199.973 231.239 199.92C231.335 199.867 231.458 199.84 231.607 199.84H233.167L230.415 202.944C230.255 203.152 230.079 203.317 229.887 203.44C229.994 203.515 230.087 203.6 230.167 203.696C230.247 203.787 230.325 203.891 230.399 204.008L233.335 208H231.799C231.661 208 231.541 207.979 231.439 207.936C231.343 207.888 231.258 207.803 231.183 207.68L228.823 204.48C228.743 204.357 228.663 204.28 228.583 204.248C228.503 204.211 228.383 204.192 228.223 204.192H227.799V208H226.079V196.16H227.799Z" fill="#292929" fill-opacity="0.62"/>
<path d="M169 327.5L242 327.5" stroke="#2B742D" stroke-width="2" stroke-linecap="round"/>
</svg>
