<svg width="16" height="16" viewBox="0 0 16 16" fill="none" xmlns="http://www.w3.org/2000/svg">
<path fill-rule="evenodd" clip-rule="evenodd" d="M5.14286 1.71429C4.57714 1.71429 4.13371 2.05829 3.85943 2.47087C3.58171 2.88687 3.42857 3.42972 3.42857 4.00001C3.42857 4.57144 3.58171 5.11315 3.85943 5.52915C4.13371 5.94058 4.57714 6.28572 5.14286 6.28572C5.70857 6.28572 6.152 5.94172 6.42629 5.52915C6.704 5.11315 6.85714 4.57029 6.85714 4.00001C6.85714 3.42858 6.704 2.88687 6.42629 2.47087C6.152 2.05944 5.70857 1.71429 5.14286 1.71429ZM10.8571 1.71429C10.2914 1.71429 9.848 2.05829 9.57371 2.47087C9.296 2.88687 9.14286 3.42972 9.14286 4.00001C9.14286 4.57144 9.296 5.11315 9.57371 5.52915C9.848 5.94058 10.2914 6.28572 10.8571 6.28572C11.4229 6.28572 11.8663 5.94172 12.1406 5.52915C12.4183 5.11315 12.5714 4.57029 12.5714 4.00001C12.5714 3.42858 12.4183 2.88687 12.1406 2.47087C11.8663 2.05944 11.4229 1.71429 10.8571 1.71429ZM1.71429 6.85715C1.14857 6.85715 0.705143 7.20115 0.430857 7.61372C0.153143 8.02972 0 8.57258 0 9.14287C0 9.71429 0.153143 10.256 0.430857 10.672C0.705143 11.0834 1.14857 11.4286 1.71429 11.4286C2.28 11.4286 2.72343 11.0846 2.99771 10.672C3.27543 10.256 3.42857 9.71315 3.42857 9.14287C3.42857 8.57144 3.27543 8.02972 2.99771 7.61372C2.72343 7.20229 2.28 6.85715 1.71429 6.85715ZM8 6.85715C6.62857 6.85715 5.61257 7.59315 4.96343 8.50629C4.32229 9.40572 4 10.5223 4 11.4286C4 12.4846 4.63429 13.2183 5.41257 13.6594C6.17829 14.0937 7.13829 14.2857 8 14.2857C8.86057 14.2857 9.82171 14.0949 10.5874 13.6594C11.3646 13.2183 12 12.4846 12 11.4286C12 10.5223 11.6777 9.40572 11.0366 8.50629C10.3886 7.59201 9.37257 6.85715 8 6.85715ZM14.2857 6.85715C13.72 6.85715 13.2766 7.20115 13.0023 7.61372C12.7246 8.02972 12.5714 8.57258 12.5714 9.14287C12.5714 9.71429 12.7246 10.256 13.0023 10.672C13.2766 11.0834 13.72 11.4286 14.2857 11.4286C14.8514 11.4286 15.2949 11.0846 15.5691 10.672C15.8469 10.256 16 9.71315 16 9.14287C16 8.57144 15.8469 8.02972 15.5691 7.61372C15.2949 7.20229 14.8514 6.85715 14.2857 6.85715Z" fill="#318130"/>
</svg>
