<svg width="24" height="24" viewBox="0 0 24 24" fill="none" xmlns="http://www.w3.org/2000/svg">
<circle cx="12" cy="12" r="11.5" fill="#BFD8BF" stroke="#318130"/>
<path d="M6 9.99984C6 9.26346 6.59695 8.6665 7.33333 8.6665H7.95309C8.39889 8.6665 8.8152 8.4437 9.06249 8.07277L9.60418 7.26024C9.85147 6.88931 10.2678 6.6665 10.7136 6.6665H13.2864C13.7322 6.6665 14.1485 6.88931 14.3958 7.26024L14.9375 8.07277C15.1848 8.4437 15.6011 8.6665 16.0469 8.6665H16.6667C17.403 8.6665 18 9.26346 18 9.99984V15.9998C18 16.7362 17.403 17.3332 16.6667 17.3332H7.33333C6.59695 17.3332 6 16.7362 6 15.9998V9.99984Z" stroke="#318130" stroke-linecap="round" stroke-linejoin="round"/>
<path d="M14 12.6665C14 13.7711 13.1046 14.6665 12 14.6665C10.8954 14.6665 10 13.7711 10 12.6665C10 11.5619 10.8954 10.6665 12 10.6665C13.1046 10.6665 14 11.5619 14 12.6665Z" stroke="#318130" stroke-linecap="round" stroke-linejoin="round"/>
</svg>
