<svg width="16" height="16" viewBox="0 0 16 16" fill="none" xmlns="http://www.w3.org/2000/svg">
<path fill-rule="evenodd" clip-rule="evenodd" d="M4.8334 4.75334V5H3.83273C3.68849 4.99991 3.54903 5.05173 3.43985 5.14598C3.33066 5.24023 3.25903 5.37063 3.23806 5.51334L3.0934 6.50867C2.80871 8.45163 2.80871 10.4257 3.0934 12.3687C3.15545 12.7918 3.35674 13.1821 3.66546 13.4781C3.97417 13.774 4.3727 13.9586 4.79806 14.0027L5.2174 14.0467C7.06806 14.2387 8.9334 14.2387 10.7841 14.0467L11.2041 14.0027C11.6293 13.9584 12.0277 13.7738 12.3363 13.4779C12.6448 13.182 12.846 12.7917 12.9081 12.3687C13.1927 10.4257 13.1927 8.45163 12.9081 6.50867L12.7627 5.51334C12.7418 5.37063 12.6701 5.24023 12.5609 5.14598C12.4518 5.05173 12.3123 4.99991 12.1681 5H11.1667V4.75334C11.1667 3.91348 10.8331 3.10803 10.2392 2.51417C9.64537 1.9203 8.83992 1.58667 8.00006 1.58667C7.16021 1.58667 6.35476 1.9203 5.76089 2.51417C5.16703 3.10803 4.8334 3.91348 4.8334 4.75334ZM8.54006 2.65534C8.21999 2.57297 7.88532 2.56491 7.56165 2.63178C7.23799 2.69866 6.93391 2.83869 6.67269 3.04117C6.41147 3.24364 6.20004 3.5032 6.05457 3.79996C5.90909 4.09672 5.83344 4.42284 5.8334 4.75334V5H10.1667V4.75334C10.1667 4.27275 10.0068 3.80583 9.71235 3.42603C9.41787 3.04623 9.00548 2.77511 8.54006 2.65534ZM5.8334 6C5.8334 5.86739 5.78072 5.74022 5.68695 5.64645C5.59318 5.55268 5.466 5.5 5.3334 5.5C5.20079 5.5 5.07361 5.55268 4.97984 5.64645C4.88607 5.74022 4.8334 5.86739 4.8334 6V7.33334C4.8334 7.46594 4.88607 7.59312 4.97984 7.68689C5.07361 7.78066 5.20079 7.83334 5.3334 7.83334C5.466 7.83334 5.59318 7.78066 5.68695 7.68689C5.78072 7.59312 5.8334 7.46594 5.8334 7.33334V6ZM11.1667 6C11.1667 5.86739 11.1141 5.74022 11.0203 5.64645C10.9265 5.55268 10.7993 5.5 10.6667 5.5C10.5341 5.5 10.4069 5.55268 10.3132 5.64645C10.2194 5.74022 10.1667 5.86739 10.1667 6V7.33334C10.1667 7.46594 10.2194 7.59312 10.3132 7.68689C10.4069 7.78066 10.5341 7.83334 10.6667 7.83334C10.7993 7.83334 10.9265 7.78066 11.0203 7.68689C11.1141 7.59312 11.1667 7.46594 11.1667 7.33334V6Z" fill="#318130"/>
</svg>
