<svg width="202" height="182" viewBox="0 0 202 182" fill="none" xmlns="http://www.w3.org/2000/svg">
    <path d="M173 84C173 93.6522 171.099 103.21 167.405 112.127C163.711 121.045 158.297 129.147 151.472 135.972C144.647 142.797 136.545 148.211 127.627 151.905C118.71 155.599 109.152 157.5 99.5 157.5C89.8478 157.5 80.2902 155.599 71.3728 151.905C62.4553 148.211 54.3528 142.797 47.5276 135.972C40.7025 129.147 35.2886 121.045 31.5949 112.127C27.9011 103.21 26 93.6522 26 84" stroke="#318130" stroke-width="5"/>
    <g filter="url(#filter0_d_212_5)">
        <circle cx="99.5" cy="83.5" r="72.5" fill="white"/>
        <circle cx="99.5" cy="83.5" r="72" stroke="#D5ECDB"/>
    </g>
    <path d="M94.9594 42.6454C92.2304 44.3707 90.56 45.2909 90.1366 45.2909C89.7837 45.2909 87.384 45.0378 84.8196 44.7158C82.2317 44.3937 80.1144 44.1637 80.0909 44.1867C78.6793 46.5791 74.6563 52.8131 74.4681 52.9281C74.3269 53.0201 72.0919 53.7792 69.5041 54.6304C66.9162 55.4815 64.7753 56.1946 64.7282 56.2176C64.7047 56.2406 64.4224 58.587 64.1165 61.4164L63.5519 66.5693L59.7642 70.1349L56 73.7004L57.7409 78.4162C58.7055 80.9926 59.5054 83.27 59.4819 83.477C59.4819 83.661 58.7055 85.8924 57.7645 88.4228L56.0471 93.0235L59.8112 96.7271L63.5754 100.454L64.1165 105.446C64.4224 108.206 64.7047 110.483 64.7518 110.529C64.7988 110.575 67.0573 111.38 69.7393 112.301L74.6563 113.957L77.1971 117.983C78.6087 120.191 79.8321 122.169 79.9497 122.33C80.1379 122.629 80.8672 122.583 85.3607 122.054L90.5836 121.433L95.03 124.217L99.5 127L103.97 124.217L108.463 121.433L113.639 122.054C118.086 122.583 118.886 122.606 119.05 122.33C119.168 122.146 120.391 120.191 121.803 117.983L124.367 113.957L129.261 112.301C131.943 111.38 134.178 110.598 134.248 110.552C134.295 110.483 134.578 108.206 134.883 105.446L135.425 100.454L139.189 96.7271L142.953 93.0235L141.236 88.4228C140.294 85.8924 139.518 83.661 139.518 83.477C139.495 83.27 140.294 80.9926 141.259 78.4162L143 73.7004L139.236 70.1349L135.448 66.5693L134.883 61.4164C134.578 58.587 134.295 56.2406 134.272 56.2176C134.225 56.1946 132.06 55.4585 129.425 54.6074C126.814 53.7332 124.579 52.9511 124.461 52.8821C124.367 52.8131 123.097 50.8577 121.615 48.5114C120.156 46.165 118.933 44.2327 118.909 44.2097C118.909 44.1867 116.768 44.4167 114.204 44.7158C111.616 45.0378 109.216 45.2909 108.863 45.2909C108.463 45.2909 106.723 44.3247 104.041 42.6454C101.711 41.1962 99.6647 40 99.4765 40C99.2883 40 97.265 41.1962 94.9594 42.6454ZM103.97 54.1243C107.381 54.6534 109.757 55.4125 112.863 56.9307C114.51 57.7359 116.604 58.932 117.498 59.5992C123.638 64.1539 127.684 70.4109 129.308 77.9561C129.872 80.6475 129.872 86.2834 129.284 88.9749C126.649 101.052 117.568 109.954 105.311 112.485C101.947 113.198 97.0533 113.198 93.689 112.485C81.4319 109.954 72.3743 101.075 69.7158 88.9749C69.1276 86.3065 69.1276 80.6705 69.6923 77.9561C71.7626 68.3866 77.6677 60.9334 86.4429 56.7697C89.219 55.4585 92.4657 54.4463 95.1712 54.0553C97.3826 53.7332 101.782 53.7792 103.97 54.1243Z" fill="#318130"/>
    <path d="M95.171 60.8192C90.1129 61.8544 85.9017 64.0858 82.561 67.5363C74.3503 75.9787 73.8092 88.7917 81.267 97.9012C86.0899 103.813 94.1594 107.08 101.829 106.252C105.005 105.906 107.169 105.308 109.969 103.951C119.874 99.1894 124.979 88.2626 122.226 77.7039C120.132 69.6296 113.639 63.2576 105.381 61.1643C102.794 60.4972 97.5707 60.3362 95.171 60.8192Z" fill="#318130"/>
    <path d="M110.443 73.2759C110.072 73.4603 106.656 76.6655 102.892 80.4241L96.037 87.2495L92.6446 83.9059L89.2522 80.5624H88.1601C86.1153 80.5624 85 81.6231 85 83.6292C85 84.9897 85.488 85.6123 90.3907 90.4085C93.7832 93.729 94.5732 94.3746 95.3167 94.5129C97.1756 94.8588 97.3383 94.7435 106.331 85.7968L114.742 77.4264V76.1121C114.742 74.9361 114.649 74.7055 113.998 73.9907C113.092 73.0222 111.605 72.7225 110.443 73.2759Z" fill="white"/>
    <g clip-path="url(#clip0_212_5)">
        <path d="M20.1602 93.468L18.3984 95.0055L18.9262 97.2945C18.9541 97.4142 18.9461 97.5395 18.9033 97.6546C18.8604 97.7698 18.7845 97.8697 18.6852 97.942C18.5858 98.0143 18.4673 98.0557 18.3445 98.061C18.2218 98.0663 18.1002 98.0353 17.9949 97.9719L15.9984 96.761L14.0063 97.9719C13.901 98.0353 13.7794 98.0663 13.6566 98.061C13.5339 98.0557 13.4154 98.0143 13.316 97.942C13.2166 97.8697 13.1408 97.7698 13.0979 97.6546C13.0551 97.5395 13.0471 97.4142 13.075 97.2945L13.602 95.0078L11.8399 93.468C11.7467 93.3876 11.6793 93.2815 11.6461 93.163C11.613 93.0444 11.6156 92.9188 11.6536 92.8017C11.6916 92.6846 11.7633 92.5814 11.8598 92.5049C11.9562 92.4285 12.0731 92.3822 12.1957 92.3719L14.5184 92.1707L15.425 90.0082C15.4724 89.8947 15.5522 89.7978 15.6545 89.7296C15.7569 89.6615 15.8771 89.6251 16 89.6251C16.123 89.6251 16.2432 89.6615 16.3455 89.7296C16.4478 89.7978 16.5277 89.8947 16.575 90.0082L17.4844 92.1707L19.8063 92.3719C19.9289 92.3822 20.0458 92.4285 20.1422 92.5049C20.2387 92.5814 20.3104 92.6846 20.3484 92.8017C20.3864 92.9188 20.389 93.0444 20.3558 93.163C20.3227 93.2815 20.2553 93.3876 20.1621 93.468H20.1602Z" fill="#318130"/>
    </g>
    <g clip-path="url(#clip1_212_5)">
        <path d="M3.66405 93.7872L2.95937 94.4022L3.17046 95.3178C3.18163 95.3657 3.17844 95.4158 3.1613 95.4618C3.14415 95.5079 3.1138 95.5479 3.07405 95.5768C3.0343 95.6057 2.98691 95.6223 2.93781 95.6244C2.8887 95.6265 2.84006 95.6141 2.79796 95.5887L1.99937 95.1044L1.20249 95.5887C1.16039 95.6141 1.11175 95.6265 1.06264 95.6244C1.01354 95.6223 0.966146 95.6057 0.926397 95.5768C0.886647 95.5479 0.856302 95.5079 0.839155 95.4618C0.822008 95.4158 0.818821 95.3657 0.829991 95.3178L1.04077 94.4031L0.335929 93.7872C0.298649 93.755 0.271692 93.7126 0.258438 93.6652C0.245183 93.6178 0.246222 93.5675 0.261424 93.5207C0.276626 93.4738 0.305314 93.4326 0.343891 93.402C0.382468 93.3714 0.429216 93.3529 0.478272 93.3487L1.40733 93.2683L1.76999 92.4033C1.78893 92.3579 1.82087 92.3191 1.8618 92.2919C1.90273 92.2646 1.95081 92.25 1.99999 92.25C2.04917 92.25 2.09725 92.2646 2.13818 92.2919C2.17911 92.3191 2.21105 92.3579 2.22999 92.4033L2.59374 93.2683L3.52249 93.3487C3.57155 93.3529 3.6183 93.3714 3.65687 93.402C3.69545 93.4326 3.72414 93.4738 3.73934 93.5207C3.75454 93.5675 3.75558 93.6178 3.74233 93.6652C3.72907 93.7126 3.70211 93.755 3.66483 93.7872H3.66405Z" fill="#318130"/>
    </g>
    <g clip-path="url(#clip2_212_5)">
        <path d="M6.49608 105.681L5.43905 106.603L5.75569 107.977C5.77245 108.049 5.76766 108.124 5.74194 108.193C5.71622 108.262 5.67071 108.322 5.61108 108.365C5.55146 108.409 5.48037 108.433 5.40671 108.437C5.33305 108.44 5.26009 108.421 5.19694 108.383L3.99905 107.657L2.80374 108.383C2.74059 108.421 2.66762 108.44 2.59396 108.437C2.52031 108.433 2.44922 108.409 2.38959 108.365C2.32997 108.322 2.28445 108.262 2.25873 108.193C2.23301 108.124 2.22823 108.049 2.24499 107.977L2.56116 106.605L1.50389 105.681C1.44797 105.633 1.40754 105.569 1.38766 105.498C1.36778 105.427 1.36933 105.351 1.39214 105.281C1.41494 105.211 1.45797 105.149 1.51584 105.103C1.5737 105.057 1.64382 105.029 1.71741 105.023L3.111 104.902L3.65499 103.605C3.68339 103.537 3.73131 103.479 3.7927 103.438C3.85409 103.397 3.92622 103.375 3.99999 103.375C4.07376 103.375 4.14588 103.397 4.20727 103.438C4.26866 103.479 4.31658 103.537 4.34499 103.605L4.89061 104.902L6.28374 105.023C6.35732 105.029 6.42744 105.057 6.48531 105.103C6.54317 105.149 6.58621 105.211 6.60901 105.281C6.63181 105.351 6.63337 105.427 6.61349 105.498C6.59361 105.569 6.55317 105.633 6.49725 105.681H6.49608Z" fill="#318130"/>
    </g>
    <g clip-path="url(#clip3_212_5)">
        <path d="M21.4961 110.681L20.439 111.603L20.7557 112.977C20.7724 113.049 20.7677 113.124 20.7419 113.193C20.7162 113.262 20.6707 113.322 20.6111 113.365C20.5515 113.409 20.4804 113.433 20.4067 113.437C20.3331 113.44 20.2601 113.421 20.1969 113.383L18.999 112.657L17.8037 113.383C17.7406 113.421 17.6676 113.44 17.594 113.437C17.5203 113.433 17.4492 113.409 17.3896 113.365C17.33 113.322 17.2845 113.262 17.2587 113.193C17.233 113.124 17.2282 113.049 17.245 112.977L17.5612 111.605L16.5039 110.681C16.448 110.633 16.4075 110.569 16.3877 110.498C16.3678 110.427 16.3693 110.351 16.3921 110.281C16.4149 110.211 16.458 110.149 16.5158 110.103C16.5737 110.057 16.6438 110.029 16.7174 110.023L18.111 109.902L18.655 108.605C18.6834 108.537 18.7313 108.479 18.7927 108.438C18.8541 108.397 18.9262 108.375 19 108.375C19.0738 108.375 19.1459 108.397 19.2073 108.438C19.2687 108.479 19.3166 108.537 19.345 108.605L19.8906 109.902L21.2837 110.023C21.3573 110.029 21.4274 110.057 21.4853 110.103C21.5432 110.149 21.5862 110.211 21.609 110.281C21.6318 110.351 21.6334 110.427 21.6135 110.498C21.5936 110.569 21.5532 110.633 21.4973 110.681H21.4961Z" fill="#318130"/>
    </g>
    <g clip-path="url(#clip4_212_5)">
        <path d="M8.41211 117.681L7.17891 118.603L7.54832 119.977C7.56787 120.049 7.56229 120.124 7.53228 120.193C7.50228 120.262 7.44917 120.322 7.37961 120.365C7.31005 120.409 7.22711 120.433 7.14118 120.437C7.05524 120.44 6.97012 120.421 6.89645 120.383L5.49891 119.657L4.10437 120.383C4.0307 120.421 3.94558 120.44 3.85964 120.437C3.7737 120.433 3.69077 120.409 3.62121 120.365C3.55165 120.322 3.49854 120.262 3.46854 120.193C3.43853 120.124 3.43295 120.049 3.4525 119.977L3.82137 118.605L2.58789 117.681C2.52265 117.633 2.47548 117.569 2.45228 117.498C2.42909 117.427 2.4309 117.351 2.45751 117.281C2.48411 117.211 2.53432 117.149 2.60182 117.103C2.66933 117.057 2.75114 117.029 2.83699 117.023L4.46285 116.902L5.0975 115.605C5.13064 115.537 5.18654 115.479 5.25817 115.438C5.32979 115.397 5.41393 115.375 5.5 115.375C5.58607 115.375 5.67021 115.397 5.74183 115.438C5.81346 115.479 5.86936 115.537 5.9025 115.605L6.53906 116.902L8.16437 117.023C8.25022 117.029 8.33203 117.057 8.39954 117.103C8.46705 117.149 8.51726 117.211 8.54386 117.281C8.57046 117.351 8.57228 117.427 8.54909 117.498C8.52589 117.569 8.47872 117.633 8.41348 117.681H8.41211Z" fill="#318130"/>
    </g>
    <g clip-path="url(#clip5_212_5)">
        <path d="M26.4961 143.681L25.439 144.603L25.7557 145.977C25.7724 146.049 25.7677 146.124 25.7419 146.193C25.7162 146.262 25.6707 146.322 25.6111 146.365C25.5515 146.409 25.4804 146.433 25.4067 146.437C25.3331 146.44 25.2601 146.421 25.1969 146.383L23.999 145.657L22.8037 146.383C22.7406 146.421 22.6676 146.44 22.594 146.437C22.5203 146.433 22.4492 146.409 22.3896 146.365C22.33 146.322 22.2845 146.262 22.2587 146.193C22.233 146.124 22.2282 146.049 22.245 145.977L22.5612 144.605L21.5039 143.681C21.448 143.633 21.4075 143.569 21.3877 143.498C21.3678 143.427 21.3693 143.351 21.3921 143.281C21.4149 143.211 21.458 143.149 21.5158 143.103C21.5737 143.057 21.6438 143.029 21.7174 143.023L23.111 142.902L23.655 141.605C23.6834 141.537 23.7313 141.479 23.7927 141.438C23.8541 141.397 23.9262 141.375 24 141.375C24.0738 141.375 24.1459 141.397 24.2073 141.438C24.2687 141.479 24.3166 141.537 24.345 141.605L24.8906 142.902L26.2837 143.023C26.3573 143.029 26.4274 143.057 26.4853 143.103C26.5432 143.149 26.5862 143.211 26.609 143.281C26.6318 143.351 26.6334 143.427 26.6135 143.498C26.5936 143.569 26.5532 143.633 26.4973 143.681H26.4961Z" fill="#318130"/>
    </g>
    <g clip-path="url(#clip6_212_5)">
        <path d="M36.4961 129.681L35.4391 130.603L35.7557 131.977C35.7725 132.049 35.7677 132.124 35.742 132.193C35.7162 132.262 35.6707 132.322 35.6111 132.365C35.5515 132.409 35.4804 132.433 35.4067 132.437C35.3331 132.44 35.2601 132.421 35.197 132.383L33.9991 131.657L32.8038 132.383C32.7406 132.421 32.6676 132.44 32.594 132.437C32.5203 132.433 32.4492 132.409 32.3896 132.365C32.33 132.322 32.2845 132.262 32.2587 132.193C32.233 132.124 32.2282 132.049 32.245 131.977L32.5612 130.605L31.5039 129.681C31.448 129.633 31.4076 129.569 31.3877 129.498C31.3678 129.427 31.3693 129.351 31.3922 129.281C31.415 129.211 31.458 129.149 31.5159 129.103C31.5737 129.057 31.6438 129.029 31.7174 129.023L33.111 128.902L33.655 127.605C33.6834 127.537 33.7313 127.479 33.7927 127.438C33.8541 127.397 33.9262 127.375 34 127.375C34.0738 127.375 34.1459 127.397 34.2073 127.438C34.2687 127.479 34.3166 127.537 34.345 127.605L34.8906 128.902L36.2838 129.023C36.3573 129.029 36.4275 129.057 36.4853 129.103C36.5432 129.149 36.5862 129.211 36.609 129.281C36.6318 129.351 36.6334 129.427 36.6135 129.498C36.5936 129.569 36.5532 129.633 36.4973 129.681H36.4961Z" fill="#318130"/>
    </g>
    <g clip-path="url(#clip7_212_5)">
        <path d="M49.1601 146.468L47.3984 148.005L47.9262 150.295C47.9541 150.414 47.9461 150.539 47.9033 150.655C47.8604 150.77 47.7845 150.87 47.6852 150.942C47.5858 151.014 47.4673 151.056 47.3445 151.061C47.2218 151.066 47.1002 151.035 46.9949 150.972L44.9984 149.761L43.0062 150.972C42.901 151.035 42.7794 151.066 42.6566 151.061C42.5339 151.056 42.4154 151.014 42.316 150.942C42.2166 150.87 42.1408 150.77 42.0979 150.655C42.055 150.539 42.0471 150.414 42.075 150.295L42.6019 148.008L40.8398 146.468C40.7466 146.388 40.6792 146.281 40.6461 146.163C40.613 146.044 40.6156 145.919 40.6536 145.802C40.6916 145.685 40.7633 145.581 40.8597 145.505C40.9562 145.428 41.0731 145.382 41.1957 145.372L43.5184 145.171L44.425 143.008C44.4723 142.895 44.5522 142.798 44.6545 142.73C44.7568 142.661 44.877 142.625 45 142.625C45.1229 142.625 45.2431 142.661 45.3455 142.73C45.4478 142.798 45.5276 142.895 45.575 143.008L46.4844 145.171L48.8062 145.372C48.9289 145.382 49.0458 145.428 49.1422 145.505C49.2386 145.581 49.3104 145.685 49.3484 145.802C49.3864 145.919 49.389 146.044 49.3558 146.163C49.3227 146.281 49.2553 146.388 49.1621 146.468H49.1601Z" fill="#318130"/>
    </g>
    <g clip-path="url(#clip8_212_5)">
        <path d="M20.3281 128.574L18.9188 129.804L19.341 131.636C19.3633 131.731 19.3569 131.832 19.3226 131.924C19.2883 132.016 19.2276 132.096 19.1481 132.154C19.0686 132.211 18.9739 132.245 18.8756 132.249C18.7774 132.253 18.6801 132.228 18.596 132.177L16.9988 131.209L15.405 132.177C15.3208 132.228 15.2235 132.253 15.1253 132.249C15.0271 132.245 14.9323 132.211 14.8528 132.154C14.7733 132.096 14.7126 132.016 14.6783 131.924C14.644 131.832 14.6377 131.731 14.66 131.636L15.0816 129.806L13.6719 128.574C13.5973 128.51 13.5434 128.425 13.5169 128.33C13.4904 128.236 13.4925 128.135 13.5229 128.041C13.5533 127.948 13.6107 127.865 13.6878 127.804C13.765 127.743 13.8585 127.706 13.9566 127.697L15.8147 127.537L16.54 125.807C16.5779 125.716 16.6418 125.638 16.7236 125.584C16.8055 125.529 16.9017 125.5 17 125.5C17.0984 125.5 17.1945 125.529 17.2764 125.584C17.3582 125.638 17.4221 125.716 17.46 125.807L18.1875 127.537L20.045 127.697C20.1431 127.706 20.2366 127.743 20.3138 127.804C20.3909 127.865 20.4483 127.948 20.4787 128.041C20.5091 128.135 20.5112 128.236 20.4847 128.33C20.4582 128.425 20.4043 128.51 20.3297 128.574H20.3281Z" fill="#318130"/>
    </g>
    <g clip-path="url(#clip9_212_5)">
        <path d="M64.3281 162.574L62.9187 163.804L63.3409 165.636C63.3633 165.731 63.3569 165.832 63.3226 165.924C63.2883 166.016 63.2276 166.096 63.1481 166.154C63.0686 166.211 62.9738 166.245 62.8756 166.249C62.7774 166.253 62.6801 166.228 62.5959 166.177L60.9987 165.209L59.405 166.177C59.3208 166.228 59.2235 166.253 59.1253 166.249C59.0271 166.245 58.9323 166.211 58.8528 166.154C58.7733 166.096 58.7126 166.016 58.6783 165.924C58.644 165.832 58.6377 165.731 58.66 165.636L59.0816 163.806L57.6719 162.574C57.5973 162.51 57.5434 162.425 57.5169 162.33C57.4904 162.236 57.4925 162.135 57.5229 162.041C57.5533 161.948 57.6106 161.865 57.6878 161.804C57.765 161.743 57.8584 161.706 57.9566 161.697L59.8147 161.537L60.54 159.807C60.5779 159.716 60.6418 159.638 60.7236 159.584C60.8055 159.529 60.9016 159.5 61 159.5C61.0984 159.5 61.1945 159.529 61.2764 159.584C61.3582 159.638 61.4221 159.716 61.46 159.807L62.1875 161.537L64.045 161.697C64.1431 161.706 64.2366 161.743 64.3138 161.804C64.3909 161.865 64.4483 161.948 64.4787 162.041C64.5091 162.135 64.5112 162.236 64.4847 162.33C64.4582 162.425 64.4042 162.51 64.3297 162.574H64.3281Z" fill="#318130"/>
    </g>
    <g clip-path="url(#clip10_212_5)">
        <path d="M33.1602 158.468L31.3984 160.005L31.9262 162.295C31.9541 162.414 31.9461 162.539 31.9033 162.655C31.8604 162.77 31.7845 162.87 31.6852 162.942C31.5858 163.014 31.4673 163.056 31.3445 163.061C31.2218 163.066 31.1002 163.035 30.9949 162.972L28.9984 161.761L27.0063 162.972C26.901 163.035 26.7794 163.066 26.6566 163.061C26.5339 163.056 26.4154 163.014 26.316 162.942C26.2166 162.87 26.1408 162.77 26.0979 162.655C26.0551 162.539 26.0471 162.414 26.075 162.295L26.602 160.008L24.8399 158.468C24.7467 158.388 24.6793 158.281 24.6461 158.163C24.613 158.044 24.6156 157.919 24.6536 157.802C24.6916 157.685 24.7633 157.581 24.8598 157.505C24.9562 157.428 25.0731 157.382 25.1957 157.372L27.5184 157.171L28.425 155.008C28.4724 154.895 28.5522 154.798 28.6545 154.73C28.7569 154.661 28.8771 154.625 29 154.625C29.123 154.625 29.2432 154.661 29.3455 154.73C29.4478 154.798 29.5277 154.895 29.575 155.008L30.4844 157.171L32.8063 157.372C32.9289 157.382 33.0458 157.428 33.1422 157.505C33.2387 157.581 33.3104 157.685 33.3484 157.802C33.3864 157.919 33.389 158.044 33.3558 158.163C33.3227 158.281 33.2553 158.388 33.1621 158.468H33.1602Z" fill="#318130"/>
    </g>
    <g clip-path="url(#clip11_212_5)">
        <path d="M86.6641 167.787L85.9594 168.402L86.1705 169.318C86.1816 169.366 86.1785 169.416 86.1613 169.462C86.1442 169.508 86.1138 169.548 86.0741 169.577C86.0343 169.606 85.9869 169.622 85.9378 169.624C85.8887 169.627 85.8401 169.614 85.798 169.589L84.9994 169.104L84.2025 169.589C84.1604 169.614 84.1118 169.627 84.0627 169.624C84.0136 169.622 83.9662 169.606 83.9264 169.577C83.8867 169.548 83.8563 169.508 83.8392 169.462C83.822 169.416 83.8188 169.366 83.83 169.318L84.0408 168.403L83.3359 167.787C83.2987 167.755 83.2717 167.713 83.2585 167.665C83.2452 167.618 83.2462 167.567 83.2614 167.521C83.2766 167.474 83.3053 167.433 83.3439 167.402C83.3825 167.371 83.4292 167.353 83.4783 167.349L84.4074 167.268L84.77 166.403C84.7889 166.358 84.8209 166.319 84.8618 166.292C84.9027 166.265 84.9508 166.25 85 166.25C85.0492 166.25 85.0973 166.265 85.1382 166.292C85.1791 166.319 85.2111 166.358 85.23 166.403L85.5938 167.268L86.5225 167.349C86.5716 167.353 86.6183 167.371 86.6569 167.402C86.6955 167.433 86.7242 167.474 86.7394 167.521C86.7546 167.567 86.7556 167.618 86.7423 167.665C86.7291 167.713 86.7021 167.755 86.6649 167.787H86.6641Z" fill="#318130"/>
    </g>
    <g clip-path="url(#clip12_212_5)">
        <path d="M181.664 89.7872L180.959 90.4022L181.17 91.3178C181.182 91.3657 181.178 91.4158 181.161 91.4618C181.144 91.5079 181.114 91.5479 181.074 91.5768C181.034 91.6057 180.987 91.6223 180.938 91.6244C180.889 91.6265 180.84 91.6141 180.798 91.5887L179.999 91.1044L179.202 91.5887C179.16 91.6141 179.112 91.6265 179.063 91.6244C179.014 91.6223 178.966 91.6057 178.926 91.5768C178.887 91.5479 178.856 91.5079 178.839 91.4618C178.822 91.4158 178.819 91.3657 178.83 91.3178L179.041 90.4031L178.336 89.7872C178.299 89.755 178.272 89.7126 178.258 89.6652C178.245 89.6178 178.246 89.5675 178.261 89.5207C178.277 89.4738 178.305 89.4326 178.344 89.402C178.382 89.3714 178.429 89.3529 178.478 89.3487L179.407 89.2683L179.77 88.4033C179.789 88.3579 179.821 88.3191 179.862 88.2919C179.903 88.2646 179.951 88.25 180 88.25C180.049 88.25 180.097 88.2646 180.138 88.2919C180.179 88.3191 180.211 88.3579 180.23 88.4033L180.594 89.2683L181.522 89.3487C181.572 89.3529 181.618 89.3714 181.657 89.402C181.695 89.4326 181.724 89.4738 181.739 89.5207C181.755 89.5675 181.756 89.6178 181.742 89.6652C181.729 89.7126 181.702 89.755 181.665 89.7872H181.664Z" fill="#318130"/>
    </g>
    <g clip-path="url(#clip13_212_5)">
        <path d="M189.664 101.787L188.959 102.402L189.17 103.318C189.182 103.366 189.178 103.416 189.161 103.462C189.144 103.508 189.114 103.548 189.074 103.577C189.034 103.606 188.987 103.622 188.938 103.624C188.889 103.627 188.84 103.614 188.798 103.589L187.999 103.104L187.202 103.589C187.16 103.614 187.112 103.627 187.063 103.624C187.014 103.622 186.966 103.606 186.926 103.577C186.887 103.548 186.856 103.508 186.839 103.462C186.822 103.416 186.819 103.366 186.83 103.318L187.041 102.403L186.336 101.787C186.299 101.755 186.272 101.713 186.258 101.665C186.245 101.618 186.246 101.567 186.261 101.521C186.277 101.474 186.305 101.433 186.344 101.402C186.382 101.371 186.429 101.353 186.478 101.349L187.407 101.268L187.77 100.403C187.789 100.358 187.821 100.319 187.862 100.292C187.903 100.265 187.951 100.25 188 100.25C188.049 100.25 188.097 100.265 188.138 100.292C188.179 100.319 188.211 100.358 188.23 100.403L188.594 101.268L189.522 101.349C189.572 101.353 189.618 101.371 189.657 101.402C189.695 101.433 189.724 101.474 189.739 101.521C189.755 101.567 189.756 101.618 189.742 101.665C189.729 101.713 189.702 101.755 189.665 101.787H189.664Z" fill="#318130"/>
    </g>
    <g clip-path="url(#clip14_212_5)">
        <path d="M197.496 88.6808L196.439 89.6033L196.756 90.9767C196.772 91.0485 196.768 91.1237 196.742 91.1928C196.716 91.2619 196.671 91.3219 196.611 91.3652C196.551 91.4086 196.48 91.4334 196.407 91.4366C196.333 91.4398 196.26 91.4212 196.197 91.3831L194.999 90.6566L193.804 91.3831C193.741 91.4212 193.668 91.4398 193.594 91.4366C193.52 91.4334 193.449 91.4086 193.39 91.3652C193.33 91.3219 193.284 91.2619 193.259 91.1928C193.233 91.1237 193.228 91.0485 193.245 90.9767L193.561 89.6047L192.504 88.6808C192.448 88.6326 192.408 88.5689 192.388 88.4978C192.368 88.4267 192.369 88.3513 192.392 88.281C192.415 88.2108 192.458 88.1488 192.516 88.103C192.574 88.0571 192.644 88.0293 192.717 88.0231L194.111 87.9024L194.655 86.6049C194.683 86.5369 194.731 86.4787 194.793 86.4378C194.854 86.3969 194.926 86.3751 195 86.3751C195.074 86.3751 195.146 86.3969 195.207 86.4378C195.269 86.4787 195.317 86.5369 195.345 86.6049L195.891 87.9024L197.284 88.0231C197.357 88.0293 197.427 88.0571 197.485 88.103C197.543 88.1488 197.586 88.2108 197.609 88.281C197.632 88.3513 197.633 88.4267 197.614 88.4978C197.594 88.5689 197.553 88.6326 197.497 88.6808H197.496Z" fill="#318130"/>
    </g>
    <g clip-path="url(#clip15_212_5)">
        <path d="M178.664 105.787L177.959 106.402L178.17 107.318C178.182 107.366 178.178 107.416 178.161 107.462C178.144 107.508 178.114 107.548 178.074 107.577C178.034 107.606 177.987 107.622 177.938 107.624C177.889 107.627 177.84 107.614 177.798 107.589L176.999 107.104L176.202 107.589C176.16 107.614 176.112 107.627 176.063 107.624C176.014 107.622 175.966 107.606 175.926 107.577C175.887 107.548 175.856 107.508 175.839 107.462C175.822 107.416 175.819 107.366 175.83 107.318L176.041 106.403L175.336 105.787C175.299 105.755 175.272 105.713 175.258 105.665C175.245 105.618 175.246 105.567 175.261 105.521C175.277 105.474 175.305 105.433 175.344 105.402C175.382 105.371 175.429 105.353 175.478 105.349L176.407 105.268L176.77 104.403C176.789 104.358 176.821 104.319 176.862 104.292C176.903 104.265 176.951 104.25 177 104.25C177.049 104.25 177.097 104.265 177.138 104.292C177.179 104.319 177.211 104.358 177.23 104.403L177.594 105.268L178.522 105.349C178.572 105.353 178.618 105.371 178.657 105.402C178.695 105.433 178.724 105.474 178.739 105.521C178.755 105.567 178.756 105.618 178.742 105.665C178.729 105.713 178.702 105.755 178.665 105.787H178.664Z" fill="#318130"/>
    </g>
    <g clip-path="url(#clip16_212_5)">
        <path d="M189.664 113.787L188.959 114.402L189.17 115.318C189.182 115.366 189.178 115.416 189.161 115.462C189.144 115.508 189.114 115.548 189.074 115.577C189.034 115.606 188.987 115.622 188.938 115.624C188.889 115.627 188.84 115.614 188.798 115.589L187.999 115.104L187.202 115.589C187.16 115.614 187.112 115.627 187.063 115.624C187.014 115.622 186.966 115.606 186.926 115.577C186.887 115.548 186.856 115.508 186.839 115.462C186.822 115.416 186.819 115.366 186.83 115.318L187.041 114.403L186.336 113.787C186.299 113.755 186.272 113.713 186.258 113.665C186.245 113.618 186.246 113.567 186.261 113.521C186.277 113.474 186.305 113.433 186.344 113.402C186.382 113.371 186.429 113.353 186.478 113.349L187.407 113.268L187.77 112.403C187.789 112.358 187.821 112.319 187.862 112.292C187.903 112.265 187.951 112.25 188 112.25C188.049 112.25 188.097 112.265 188.138 112.292C188.179 112.319 188.211 112.358 188.23 112.403L188.594 113.268L189.522 113.349C189.572 113.353 189.618 113.371 189.657 113.402C189.695 113.433 189.724 113.474 189.739 113.521C189.755 113.567 189.756 113.618 189.742 113.665C189.729 113.713 189.702 113.755 189.665 113.787H189.664Z" fill="#318130"/>
    </g>
    <g clip-path="url(#clip17_212_5)">
        <path d="M185.664 126.787L184.959 127.402L185.17 128.318C185.182 128.366 185.178 128.416 185.161 128.462C185.144 128.508 185.114 128.548 185.074 128.577C185.034 128.606 184.987 128.622 184.938 128.624C184.889 128.627 184.84 128.614 184.798 128.589L183.999 128.104L183.202 128.589C183.16 128.614 183.112 128.627 183.063 128.624C183.014 128.622 182.966 128.606 182.926 128.577C182.887 128.548 182.856 128.508 182.839 128.462C182.822 128.416 182.819 128.366 182.83 128.318L183.041 127.403L182.336 126.787C182.299 126.755 182.272 126.713 182.258 126.665C182.245 126.618 182.246 126.567 182.261 126.521C182.277 126.474 182.305 126.433 182.344 126.402C182.382 126.371 182.429 126.353 182.478 126.349L183.407 126.268L183.77 125.403C183.789 125.358 183.821 125.319 183.862 125.292C183.903 125.265 183.951 125.25 184 125.25C184.049 125.25 184.097 125.265 184.138 125.292C184.179 125.319 184.211 125.358 184.23 125.403L184.594 126.268L185.522 126.349C185.572 126.353 185.618 126.371 185.657 126.402C185.695 126.433 185.724 126.474 185.739 126.521C185.755 126.567 185.756 126.618 185.742 126.665C185.729 126.713 185.702 126.755 185.665 126.787H185.664Z" fill="#318130"/>
    </g>
    <g clip-path="url(#clip18_212_5)">
        <path d="M201.16 108.468L199.398 110.005L199.926 112.295C199.954 112.414 199.946 112.539 199.903 112.655C199.86 112.77 199.785 112.87 199.685 112.942C199.586 113.014 199.467 113.056 199.345 113.061C199.222 113.066 199.1 113.035 198.995 112.972L196.998 111.761L195.006 112.972C194.901 113.035 194.779 113.066 194.657 113.061C194.534 113.056 194.415 113.014 194.316 112.942C194.217 112.87 194.141 112.77 194.098 112.655C194.055 112.539 194.047 112.414 194.075 112.295L194.602 110.008L192.84 108.468C192.747 108.388 192.679 108.281 192.646 108.163C192.613 108.044 192.616 107.919 192.654 107.802C192.692 107.685 192.763 107.581 192.86 107.505C192.956 107.428 193.073 107.382 193.196 107.372L195.518 107.171L196.425 105.008C196.472 104.895 196.552 104.798 196.655 104.73C196.757 104.661 196.877 104.625 197 104.625C197.123 104.625 197.243 104.661 197.345 104.73C197.448 104.798 197.528 104.895 197.575 105.008L198.484 107.171L200.806 107.372C200.929 107.382 201.046 107.428 201.142 107.505C201.239 107.581 201.31 107.685 201.348 107.802C201.386 107.919 201.389 108.044 201.356 108.163C201.323 108.281 201.255 108.388 201.162 108.468H201.16Z" fill="#318130"/>
    </g>
    <g clip-path="url(#clip19_212_5)">
        <path d="M175.328 121.574L173.919 122.804L174.341 124.636C174.363 124.731 174.357 124.832 174.323 124.924C174.288 125.016 174.228 125.096 174.148 125.154C174.069 125.211 173.974 125.245 173.876 125.249C173.777 125.253 173.68 125.228 173.596 125.177L171.999 124.209L170.405 125.177C170.321 125.228 170.224 125.253 170.125 125.249C170.027 125.245 169.932 125.211 169.853 125.154C169.773 125.096 169.713 125.016 169.678 124.924C169.644 124.832 169.638 124.731 169.66 124.636L170.082 122.806L168.672 121.574C168.597 121.51 168.543 121.425 168.517 121.33C168.49 121.236 168.492 121.135 168.523 121.041C168.553 120.948 168.611 120.865 168.688 120.804C168.765 120.743 168.858 120.706 168.957 120.697L170.815 120.537L171.54 118.807C171.578 118.716 171.642 118.638 171.724 118.584C171.805 118.529 171.902 118.5 172 118.5C172.098 118.5 172.195 118.529 172.276 118.584C172.358 118.638 172.422 118.716 172.46 118.807L173.187 120.537L175.045 120.697C175.143 120.706 175.237 120.743 175.314 120.804C175.391 120.865 175.448 120.948 175.479 121.041C175.509 121.135 175.511 121.236 175.485 121.33C175.458 121.425 175.404 121.51 175.33 121.574H175.328Z" fill="#318130"/>
    </g>
    <g clip-path="url(#clip20_212_5)">
        <path d="M103.328 166.574L101.919 167.804L102.341 169.636C102.363 169.731 102.357 169.832 102.323 169.924C102.288 170.016 102.228 170.096 102.148 170.154C102.069 170.211 101.974 170.245 101.876 170.249C101.777 170.253 101.68 170.228 101.596 170.177L99.9987 169.209L98.405 170.177C98.3208 170.228 98.2235 170.253 98.1253 170.249C98.0271 170.245 97.9323 170.211 97.8528 170.154C97.7733 170.096 97.7126 170.016 97.6783 169.924C97.644 169.832 97.6377 169.731 97.66 169.636L98.0816 167.806L96.6719 166.574C96.5973 166.51 96.5434 166.425 96.5169 166.33C96.4904 166.236 96.4925 166.135 96.5229 166.041C96.5533 165.948 96.6106 165.865 96.6878 165.804C96.765 165.743 96.8584 165.706 96.9566 165.697L98.8147 165.537L99.54 163.807C99.5779 163.716 99.6418 163.638 99.7236 163.584C99.8055 163.529 99.9016 163.5 100 163.5C100.098 163.5 100.195 163.529 100.276 163.584C100.358 163.638 100.422 163.716 100.46 163.807L101.187 165.537L103.045 165.697C103.143 165.706 103.237 165.743 103.314 165.804C103.391 165.865 103.448 165.948 103.479 166.041C103.509 166.135 103.511 166.236 103.485 166.33C103.458 166.425 103.404 166.51 103.33 166.574H103.328Z" fill="#318130"/>
    </g>
    <g clip-path="url(#clip21_212_5)">
        <path d="M137.328 169.574L135.919 170.804L136.341 172.636C136.363 172.731 136.357 172.832 136.323 172.924C136.288 173.016 136.228 173.096 136.148 173.154C136.069 173.211 135.974 173.245 135.876 173.249C135.777 173.253 135.68 173.228 135.596 173.177L133.999 172.209L132.405 173.177C132.321 173.228 132.224 173.253 132.125 173.249C132.027 173.245 131.932 173.211 131.853 173.154C131.773 173.096 131.713 173.016 131.678 172.924C131.644 172.832 131.638 172.731 131.66 172.636L132.082 170.806L130.672 169.574C130.597 169.51 130.543 169.425 130.517 169.33C130.49 169.236 130.492 169.135 130.523 169.041C130.553 168.948 130.611 168.865 130.688 168.804C130.765 168.743 130.858 168.706 130.957 168.697L132.815 168.537L133.54 166.807C133.578 166.716 133.642 166.638 133.724 166.584C133.805 166.529 133.902 166.5 134 166.5C134.098 166.5 134.195 166.529 134.276 166.584C134.358 166.638 134.422 166.716 134.46 166.807L135.187 168.537L137.045 168.697C137.143 168.706 137.237 168.743 137.314 168.804C137.391 168.865 137.448 168.948 137.479 169.041C137.509 169.135 137.511 169.236 137.485 169.33C137.458 169.425 137.404 169.51 137.33 169.574H137.328Z" fill="#318130"/>
    </g>
    <g clip-path="url(#clip22_212_5)">
        <path d="M105.328 177.574L103.919 178.804L104.341 180.636C104.363 180.731 104.357 180.832 104.323 180.924C104.288 181.016 104.228 181.096 104.148 181.154C104.069 181.211 103.974 181.245 103.876 181.249C103.777 181.253 103.68 181.228 103.596 181.177L101.999 180.209L100.405 181.177C100.321 181.228 100.224 181.253 100.125 181.249C100.027 181.245 99.9323 181.211 99.8528 181.154C99.7733 181.096 99.7126 181.016 99.6783 180.924C99.644 180.832 99.6377 180.731 99.66 180.636L100.082 178.806L98.6719 177.574C98.5973 177.51 98.5434 177.425 98.5169 177.33C98.4904 177.236 98.4925 177.135 98.5229 177.041C98.5533 176.948 98.6106 176.865 98.6878 176.804C98.765 176.743 98.8584 176.706 98.9566 176.697L100.815 176.537L101.54 174.807C101.578 174.716 101.642 174.638 101.724 174.584C101.805 174.529 101.902 174.5 102 174.5C102.098 174.5 102.195 174.529 102.276 174.584C102.358 174.638 102.422 174.716 102.46 174.807L103.187 176.537L105.045 176.697C105.143 176.706 105.237 176.743 105.314 176.804C105.391 176.865 105.448 176.948 105.479 177.041C105.509 177.135 105.511 177.236 105.485 177.33C105.458 177.425 105.404 177.51 105.33 177.574H105.328Z" fill="#318130"/>
    </g>
    <g clip-path="url(#clip23_212_5)">
        <path d="M79.3281 175.574L77.9187 176.804L78.3409 178.636C78.3633 178.731 78.3569 178.832 78.3226 178.924C78.2883 179.016 78.2276 179.096 78.1481 179.154C78.0686 179.211 77.9738 179.245 77.8756 179.249C77.7774 179.253 77.6801 179.228 77.5959 179.177L75.9987 178.209L74.405 179.177C74.3208 179.228 74.2235 179.253 74.1253 179.249C74.0271 179.245 73.9323 179.211 73.8528 179.154C73.7733 179.096 73.7126 179.016 73.6783 178.924C73.644 178.832 73.6377 178.731 73.66 178.636L74.0816 176.806L72.6719 175.574C72.5973 175.51 72.5434 175.425 72.5169 175.33C72.4904 175.236 72.4925 175.135 72.5229 175.041C72.5533 174.948 72.6106 174.865 72.6878 174.804C72.765 174.743 72.8584 174.706 72.9566 174.697L74.8147 174.537L75.54 172.807C75.5779 172.716 75.6418 172.638 75.7236 172.584C75.8055 172.529 75.9016 172.5 76 172.5C76.0984 172.5 76.1945 172.529 76.2764 172.584C76.3582 172.638 76.4221 172.716 76.46 172.807L77.1875 174.537L79.045 174.697C79.1431 174.706 79.2366 174.743 79.3138 174.804C79.3909 174.865 79.4483 174.948 79.4787 175.041C79.5091 175.135 79.5112 175.236 79.4847 175.33C79.4582 175.425 79.4042 175.51 79.3297 175.574H79.3281Z" fill="#318130"/>
    </g>
    <g clip-path="url(#clip24_212_5)">
        <path d="M118.664 163.787L117.959 164.402L118.17 165.318C118.182 165.366 118.178 165.416 118.161 165.462C118.144 165.508 118.114 165.548 118.074 165.577C118.034 165.606 117.987 165.622 117.938 165.624C117.889 165.627 117.84 165.614 117.798 165.589L116.999 165.104L116.203 165.589C116.16 165.614 116.112 165.627 116.063 165.624C116.014 165.622 115.966 165.606 115.926 165.577C115.887 165.548 115.856 165.508 115.839 165.462C115.822 165.416 115.819 165.366 115.83 165.318L116.041 164.403L115.336 163.787C115.299 163.755 115.272 163.713 115.258 163.665C115.245 163.618 115.246 163.567 115.261 163.521C115.277 163.474 115.305 163.433 115.344 163.402C115.382 163.371 115.429 163.353 115.478 163.349L116.407 163.268L116.77 162.403C116.789 162.358 116.821 162.319 116.862 162.292C116.903 162.265 116.951 162.25 117 162.25C117.049 162.25 117.097 162.265 117.138 162.292C117.179 162.319 117.211 162.358 117.23 162.403L117.594 163.268L118.523 163.349C118.572 163.353 118.618 163.371 118.657 163.402C118.695 163.433 118.724 163.474 118.739 163.521C118.755 163.567 118.756 163.618 118.742 163.665C118.729 163.713 118.702 163.755 118.665 163.787H118.664Z" fill="#318130"/>
    </g>
    <g clip-path="url(#clip25_212_5)">
        <path d="M143.328 157.574L141.919 158.804L142.341 160.636C142.363 160.731 142.357 160.832 142.323 160.924C142.288 161.016 142.228 161.096 142.148 161.154C142.069 161.211 141.974 161.245 141.876 161.249C141.777 161.253 141.68 161.228 141.596 161.177L139.999 160.209L138.405 161.177C138.321 161.228 138.224 161.253 138.125 161.249C138.027 161.245 137.932 161.211 137.853 161.154C137.773 161.096 137.713 161.016 137.678 160.924C137.644 160.832 137.638 160.731 137.66 160.636L138.082 158.806L136.672 157.574C136.597 157.51 136.543 157.425 136.517 157.33C136.49 157.236 136.492 157.135 136.523 157.041C136.553 156.948 136.611 156.865 136.688 156.804C136.765 156.743 136.858 156.706 136.957 156.697L138.815 156.537L139.54 154.807C139.578 154.716 139.642 154.638 139.724 154.584C139.805 154.529 139.902 154.5 140 154.5C140.098 154.5 140.195 154.529 140.276 154.584C140.358 154.638 140.422 154.716 140.46 154.807L141.187 156.537L143.045 156.697C143.143 156.706 143.237 156.743 143.314 156.804C143.391 156.865 143.448 156.948 143.479 157.041C143.509 157.135 143.511 157.236 143.485 157.33C143.458 157.425 143.404 157.51 143.33 157.574H143.328Z" fill="#318130"/>
    </g>
    <g clip-path="url(#clip26_212_5)">
        <path d="M166.328 137.574L164.919 138.804L165.341 140.636C165.363 140.731 165.357 140.832 165.323 140.924C165.288 141.016 165.228 141.096 165.148 141.154C165.069 141.211 164.974 141.245 164.876 141.249C164.777 141.253 164.68 141.228 164.596 141.177L162.999 140.209L161.405 141.177C161.321 141.228 161.224 141.253 161.125 141.249C161.027 141.245 160.932 141.211 160.853 141.154C160.773 141.096 160.713 141.016 160.678 140.924C160.644 140.832 160.638 140.731 160.66 140.636L161.082 138.806L159.672 137.574C159.597 137.51 159.543 137.425 159.517 137.33C159.49 137.236 159.492 137.135 159.523 137.041C159.553 136.948 159.611 136.865 159.688 136.804C159.765 136.743 159.858 136.706 159.957 136.697L161.815 136.537L162.54 134.807C162.578 134.716 162.642 134.638 162.724 134.584C162.805 134.529 162.902 134.5 163 134.5C163.098 134.5 163.195 134.529 163.276 134.584C163.358 134.638 163.422 134.716 163.46 134.807L164.187 136.537L166.045 136.697C166.143 136.706 166.237 136.743 166.314 136.804C166.391 136.865 166.448 136.948 166.479 137.041C166.509 137.135 166.511 137.236 166.485 137.33C166.458 137.425 166.404 137.51 166.33 137.574H166.328Z" fill="#318130"/>
    </g>
    <g clip-path="url(#clip27_212_5)">
        <path d="M122.328 175.574L120.919 176.804L121.341 178.636C121.363 178.731 121.357 178.832 121.323 178.924C121.288 179.016 121.228 179.096 121.148 179.154C121.069 179.211 120.974 179.245 120.876 179.249C120.777 179.253 120.68 179.228 120.596 179.177L118.999 178.209L117.405 179.177C117.321 179.228 117.224 179.253 117.125 179.249C117.027 179.245 116.932 179.211 116.853 179.154C116.773 179.096 116.713 179.016 116.678 178.924C116.644 178.832 116.638 178.731 116.66 178.636L117.082 176.806L115.672 175.574C115.597 175.51 115.543 175.425 115.517 175.33C115.49 175.236 115.492 175.135 115.523 175.041C115.553 174.948 115.611 174.865 115.688 174.804C115.765 174.743 115.858 174.706 115.957 174.697L117.815 174.537L118.54 172.807C118.578 172.716 118.642 172.638 118.724 172.584C118.805 172.529 118.902 172.5 119 172.5C119.098 172.5 119.195 172.529 119.276 172.584C119.358 172.638 119.422 172.716 119.46 172.807L120.187 174.537L122.045 174.697C122.143 174.706 122.237 174.743 122.314 174.804C122.391 174.865 122.448 174.948 122.479 175.041C122.509 175.135 122.511 175.236 122.485 175.33C122.458 175.425 122.404 175.51 122.33 175.574H122.328Z" fill="#318130"/>
    </g>
    <g clip-path="url(#clip28_212_5)">
        <path d="M149.496 148.681L148.439 149.603L148.756 150.977C148.772 151.049 148.768 151.124 148.742 151.193C148.716 151.262 148.671 151.322 148.611 151.365C148.551 151.409 148.48 151.433 148.407 151.437C148.333 151.44 148.26 151.421 148.197 151.383L146.999 150.657L145.804 151.383C145.741 151.421 145.668 151.44 145.594 151.437C145.52 151.433 145.449 151.409 145.39 151.365C145.33 151.322 145.284 151.262 145.259 151.193C145.233 151.124 145.228 151.049 145.245 150.977L145.561 149.605L144.504 148.681C144.448 148.633 144.408 148.569 144.388 148.498C144.368 148.427 144.369 148.351 144.392 148.281C144.415 148.211 144.458 148.149 144.516 148.103C144.574 148.057 144.644 148.029 144.717 148.023L146.111 147.902L146.655 146.605C146.683 146.537 146.731 146.479 146.793 146.438C146.854 146.397 146.926 146.375 147 146.375C147.074 146.375 147.146 146.397 147.207 146.438C147.269 146.479 147.317 146.537 147.345 146.605L147.891 147.902L149.284 148.023C149.357 148.029 149.427 148.057 149.485 148.103C149.543 148.149 149.586 148.211 149.609 148.281C149.632 148.351 149.633 148.427 149.614 148.498C149.594 148.569 149.553 148.633 149.497 148.681H149.496Z" fill="#318130"/>
    </g>
    <g clip-path="url(#clip29_212_5)">
        <path d="M170.328 153.574L168.919 154.804L169.341 156.636C169.363 156.731 169.357 156.832 169.323 156.924C169.288 157.016 169.228 157.096 169.148 157.154C169.069 157.211 168.974 157.245 168.876 157.249C168.777 157.253 168.68 157.228 168.596 157.177L166.999 156.209L165.405 157.177C165.321 157.228 165.224 157.253 165.125 157.249C165.027 157.245 164.932 157.211 164.853 157.154C164.773 157.096 164.713 157.016 164.678 156.924C164.644 156.832 164.638 156.731 164.66 156.636L165.082 154.806L163.672 153.574C163.597 153.51 163.543 153.425 163.517 153.33C163.49 153.236 163.492 153.135 163.523 153.041C163.553 152.948 163.611 152.865 163.688 152.804C163.765 152.743 163.858 152.706 163.957 152.697L165.815 152.537L166.54 150.807C166.578 150.716 166.642 150.638 166.724 150.584C166.805 150.529 166.902 150.5 167 150.5C167.098 150.5 167.195 150.529 167.276 150.584C167.358 150.638 167.422 150.716 167.46 150.807L168.187 152.537L170.045 152.697C170.143 152.706 170.237 152.743 170.314 152.804C170.391 152.865 170.448 152.948 170.479 153.041C170.509 153.135 170.511 153.236 170.485 153.33C170.458 153.425 170.404 153.51 170.33 153.574H170.328Z" fill="#318130"/>
    </g>
    <g clip-path="url(#clip30_212_5)">
        <path d="M181.664 142.787L180.959 143.402L181.17 144.318C181.182 144.366 181.178 144.416 181.161 144.462C181.144 144.508 181.114 144.548 181.074 144.577C181.034 144.606 180.987 144.622 180.938 144.624C180.889 144.627 180.84 144.614 180.798 144.589L179.999 144.104L179.202 144.589C179.16 144.614 179.112 144.627 179.063 144.624C179.014 144.622 178.966 144.606 178.926 144.577C178.887 144.548 178.856 144.508 178.839 144.462C178.822 144.416 178.819 144.366 178.83 144.318L179.041 143.403L178.336 142.787C178.299 142.755 178.272 142.713 178.258 142.665C178.245 142.618 178.246 142.567 178.261 142.521C178.277 142.474 178.305 142.433 178.344 142.402C178.382 142.371 178.429 142.353 178.478 142.349L179.407 142.268L179.77 141.403C179.789 141.358 179.821 141.319 179.862 141.292C179.903 141.265 179.951 141.25 180 141.25C180.049 141.25 180.097 141.265 180.138 141.292C180.179 141.319 180.211 141.358 180.23 141.403L180.594 142.268L181.522 142.349C181.572 142.353 181.618 142.371 181.657 142.402C181.695 142.433 181.724 142.474 181.739 142.521C181.755 142.567 181.756 142.618 181.742 142.665C181.729 142.713 181.702 142.755 181.665 142.787H181.664Z" fill="#318130"/>
    </g>
    <g clip-path="url(#clip31_212_5)">
        <path d="M75.6641 161.787L74.9594 162.402L75.1705 163.318C75.1816 163.366 75.1785 163.416 75.1613 163.462C75.1442 163.508 75.1138 163.548 75.0741 163.577C75.0343 163.606 74.9869 163.622 74.9378 163.624C74.8887 163.627 74.8401 163.614 74.798 163.589L73.9994 163.104L73.2025 163.589C73.1604 163.614 73.1118 163.627 73.0627 163.624C73.0136 163.622 72.9662 163.606 72.9264 163.577C72.8867 163.548 72.8563 163.508 72.8392 163.462C72.822 163.416 72.8188 163.366 72.83 163.318L73.0408 162.403L72.3359 161.787C72.2987 161.755 72.2717 161.713 72.2585 161.665C72.2452 161.618 72.2462 161.567 72.2614 161.521C72.2766 161.474 72.3053 161.433 72.3439 161.402C72.3825 161.371 72.4292 161.353 72.4783 161.349L73.4074 161.268L73.77 160.403C73.7889 160.358 73.8209 160.319 73.8618 160.292C73.9027 160.265 73.9508 160.25 74 160.25C74.0492 160.25 74.0973 160.265 74.1382 160.292C74.1791 160.319 74.2111 160.358 74.23 160.403L74.5938 161.268L75.5225 161.349C75.5716 161.353 75.6183 161.371 75.6569 161.402C75.6955 161.433 75.7242 161.474 75.7394 161.521C75.7546 161.567 75.7556 161.618 75.7423 161.665C75.7291 161.713 75.7021 161.755 75.6649 161.787H75.6641Z" fill="#318130"/>
    </g>
    <g clip-path="url(#clip32_212_5)">
        <path d="M46.6641 162.787L45.9594 163.402L46.1705 164.318C46.1816 164.366 46.1785 164.416 46.1613 164.462C46.1442 164.508 46.1138 164.548 46.0741 164.577C46.0343 164.606 45.9869 164.622 45.9378 164.624C45.8887 164.627 45.8401 164.614 45.798 164.589L44.9994 164.104L44.2025 164.589C44.1604 164.614 44.1118 164.627 44.0627 164.624C44.0136 164.622 43.9662 164.606 43.9264 164.577C43.8867 164.548 43.8563 164.508 43.8392 164.462C43.822 164.416 43.8188 164.366 43.83 164.318L44.0408 163.403L43.3359 162.787C43.2987 162.755 43.2717 162.713 43.2585 162.665C43.2452 162.618 43.2462 162.567 43.2614 162.521C43.2766 162.474 43.3053 162.433 43.3439 162.402C43.3825 162.371 43.4292 162.353 43.4783 162.349L44.4074 162.268L44.77 161.403C44.7889 161.358 44.8209 161.319 44.8618 161.292C44.9027 161.265 44.9508 161.25 45 161.25C45.0492 161.25 45.0973 161.265 45.1382 161.292C45.1791 161.319 45.2111 161.358 45.23 161.403L45.5938 162.268L46.5225 162.349C46.5716 162.353 46.6183 162.371 46.6569 162.402C46.6955 162.433 46.7242 162.474 46.7394 162.521C46.7546 162.567 46.7556 162.618 46.7423 162.665C46.7291 162.713 46.7021 162.755 46.6649 162.787H46.6641Z" fill="#318130"/>
    </g>
    <defs>
        <filter id="filter0_d_212_5" x="17" y="0" width="165" height="165" filterUnits="userSpaceOnUse" color-interpolation-filters="sRGB">
            <feFlood flood-opacity="0" result="BackgroundImageFix"/>
            <feColorMatrix in="SourceAlpha" type="matrix" values="0 0 0 0 0 0 0 0 0 0 0 0 0 0 0 0 0 0 127 0" result="hardAlpha"/>
            <feOffset dy="-1"/>
            <feGaussianBlur stdDeviation="5"/>
            <feComposite in2="hardAlpha" operator="out"/>
            <feColorMatrix type="matrix" values="0 0 0 0 0 0 0 0 0 0 0 0 0 0 0 0 0 0 0.1 0"/>
            <feBlend mode="normal" in2="BackgroundImageFix" result="effect1_dropShadow_212_5"/>
            <feBlend mode="normal" in="SourceGraphic" in2="effect1_dropShadow_212_5" result="shape"/>
        </filter>
        <clipPath id="clip0_212_5">
            <rect width="10" height="10" fill="white" transform="translate(11 89)"/>
        </clipPath>
        <clipPath id="clip1_212_5">
            <rect width="4" height="4" fill="white" transform="translate(0 92)"/>
        </clipPath>
        <clipPath id="clip2_212_5">
            <rect width="6" height="6" fill="white" transform="translate(1 103)"/>
        </clipPath>
        <clipPath id="clip3_212_5">
            <rect width="6" height="6" fill="white" transform="translate(16 108)"/>
        </clipPath>
        <clipPath id="clip4_212_5">
            <rect width="7" height="6" fill="white" transform="translate(2 115)"/>
        </clipPath>
        <clipPath id="clip5_212_5">
            <rect width="6" height="6" fill="white" transform="translate(21 141)"/>
        </clipPath>
        <clipPath id="clip6_212_5">
            <rect width="6" height="6" fill="white" transform="translate(31 127)"/>
        </clipPath>
        <clipPath id="clip7_212_5">
            <rect width="10" height="10" fill="white" transform="translate(40 142)"/>
        </clipPath>
        <clipPath id="clip8_212_5">
            <rect width="8" height="8" fill="white" transform="translate(13 125)"/>
        </clipPath>
        <clipPath id="clip9_212_5">
            <rect width="8" height="8" fill="white" transform="translate(57 159)"/>
        </clipPath>
        <clipPath id="clip10_212_5">
            <rect width="10" height="10" fill="white" transform="translate(24 154)"/>
        </clipPath>
        <clipPath id="clip11_212_5">
            <rect width="4" height="4" fill="white" transform="translate(83 166)"/>
        </clipPath>
        <clipPath id="clip12_212_5">
            <rect width="4" height="4" fill="white" transform="translate(178 88)"/>
        </clipPath>
        <clipPath id="clip13_212_5">
            <rect width="4" height="4" fill="white" transform="translate(186 100)"/>
        </clipPath>
        <clipPath id="clip14_212_5">
            <rect width="6" height="6" fill="white" transform="translate(192 86)"/>
        </clipPath>
        <clipPath id="clip15_212_5">
            <rect width="4" height="4" fill="white" transform="translate(175 104)"/>
        </clipPath>
        <clipPath id="clip16_212_5">
            <rect width="4" height="4" fill="white" transform="translate(186 112)"/>
        </clipPath>
        <clipPath id="clip17_212_5">
            <rect width="4" height="4" fill="white" transform="translate(182 125)"/>
        </clipPath>
        <clipPath id="clip18_212_5">
            <rect width="10" height="10" fill="white" transform="translate(192 104)"/>
        </clipPath>
        <clipPath id="clip19_212_5">
            <rect width="8" height="8" fill="white" transform="translate(168 118)"/>
        </clipPath>
        <clipPath id="clip20_212_5">
            <rect width="8" height="8" fill="white" transform="translate(96 163)"/>
        </clipPath>
        <clipPath id="clip21_212_5">
            <rect width="8" height="8" fill="white" transform="translate(130 166)"/>
        </clipPath>
        <clipPath id="clip22_212_5">
            <rect width="8" height="8" fill="white" transform="translate(98 174)"/>
        </clipPath>
        <clipPath id="clip23_212_5">
            <rect width="8" height="8" fill="white" transform="translate(72 172)"/>
        </clipPath>
        <clipPath id="clip24_212_5">
            <rect width="4" height="4" fill="white" transform="translate(115 162)"/>
        </clipPath>
        <clipPath id="clip25_212_5">
            <rect width="8" height="8" fill="white" transform="translate(136 154)"/>
        </clipPath>
        <clipPath id="clip26_212_5">
            <rect width="8" height="8" fill="white" transform="translate(159 134)"/>
        </clipPath>
        <clipPath id="clip27_212_5">
            <rect width="8" height="8" fill="white" transform="translate(115 172)"/>
        </clipPath>
        <clipPath id="clip28_212_5">
            <rect width="6" height="6" fill="white" transform="translate(144 146)"/>
        </clipPath>
        <clipPath id="clip29_212_5">
            <rect width="8" height="8" fill="white" transform="translate(163 150)"/>
        </clipPath>
        <clipPath id="clip30_212_5">
            <rect width="4" height="4" fill="white" transform="translate(178 141)"/>
        </clipPath>
        <clipPath id="clip31_212_5">
            <rect width="4" height="4" fill="white" transform="translate(72 160)"/>
        </clipPath>
        <clipPath id="clip32_212_5">
            <rect width="4" height="4" fill="white" transform="translate(43 161)"/>
        </clipPath>
    </defs>
</svg>
