<svg width="17" height="16" viewBox="0 0 17 16" fill="none" xmlns="http://www.w3.org/2000/svg">
<g clip-path="url(#clip0_760_1525)">
<path d="M7.64041 0.153106C7.45603 0.184356 7.31853 0.278106 7.25291 0.421855C7.21853 0.490605 7.15291 0.784355 7.10916 1.0781L7.02478 1.60935L6.67791 1.69686C6.21541 1.81248 5.60291 2.05936 5.17478 2.30311C4.98416 2.41561 4.81853 2.50623 4.80603 2.50936C4.79666 2.51248 4.58103 2.36873 4.32791 2.19061C3.83728 1.84373 3.72166 1.79373 3.50916 1.84686C3.34978 1.88748 2.86853 2.30623 2.49978 2.72811C2.07791 3.21248 2.08103 3.29373 2.54666 3.94373C2.72791 4.19685 2.87478 4.4156 2.87478 4.43123C2.87478 4.44998 2.80916 4.57498 2.72791 4.70936C2.44041 5.19685 2.08103 6.09373 2.01541 6.49373C1.99978 6.5906 1.97478 6.63748 1.92791 6.65623C1.89041 6.67185 1.62791 6.72186 1.34353 6.7656C0.506032 6.89373 0.481032 6.93748 0.506032 8.17811C0.518532 8.83748 0.534157 8.90623 0.693532 9.04998C0.790407 9.14061 0.909157 9.17186 1.42166 9.24998C1.97791 9.33436 1.98728 9.33748 2.01541 9.50623C2.08416 9.91873 2.43416 10.7937 2.72791 11.2906C2.80916 11.425 2.87478 11.55 2.87478 11.5656C2.87478 11.5812 2.72791 11.8031 2.54666 12.0562C2.07166 12.7219 2.07166 12.7937 2.54353 13.3156C2.93728 13.7531 3.33728 14.0969 3.51541 14.15C3.72478 14.2125 3.83728 14.1625 4.34353 13.8L4.79353 13.475L4.92166 13.55C5.45603 13.8781 6.10291 14.1562 6.65603 14.3C6.83728 14.3469 6.99353 14.3937 7.00603 14.4031C7.01853 14.4156 7.06541 14.6562 7.11228 14.9375C7.15603 15.2219 7.21853 15.5094 7.25291 15.5812C7.34353 15.775 7.48728 15.8406 7.87791 15.8625C8.20291 15.8844 8.20291 15.8844 8.28728 15.7969L8.37478 15.7094V14.5125V13.3156L8.30291 13.2312C8.24041 13.1594 8.19978 13.1469 7.93728 13.1219C6.31228 12.9594 4.92791 12.125 4.05603 10.7812C2.93728 9.05936 2.95603 6.86873 4.10603 5.1406C4.70916 4.23748 5.63728 3.5156 6.67166 3.14685C6.98103 3.03748 7.55291 2.91561 7.92166 2.88123C8.19978 2.85311 8.23728 2.84373 8.30291 2.76873L8.37478 2.68436V1.48748V0.290606L8.29353 0.20623C8.21853 0.134356 8.19041 0.12498 7.98728 0.128105C7.86541 0.13123 7.70916 0.140605 7.64041 0.153106Z" fill="#318130"/>
<path d="M10.5313 0.703125C10.125 0.834375 9.8875 1.3 10.0125 1.72187C10.0719 1.925 10.2063 2.09687 10.3938 2.20625L10.5344 2.29062L10.525 3.1625L10.5156 4.0375L10.4281 4.1125C10.3406 4.1875 10.3375 4.1875 9.62188 4.1875H8.90625V4.46875V4.75H9.65938C10.1469 4.75 10.4594 4.7375 10.5375 4.7125C10.6938 4.66562 10.9188 4.46875 11.0094 4.3C11.075 4.17812 11.0781 4.13125 11.0875 3.21875L11.0969 2.2625L11.1938 2.22187C11.3406 2.15625 11.5188 1.95312 11.575 1.79062C11.7156 1.37812 11.5469 0.934375 11.1719 0.74375C11.0125 0.6625 10.7156 0.64375 10.5313 0.703125Z" fill="#318130"/>
<path d="M13.2375 3.14374C13.0312 3.20936 12.8094 3.43436 12.7344 3.65311C12.6656 3.85936 12.6844 4.12186 12.775 4.29999C12.8469 4.43749 13.05 4.63749 13.1531 4.67186C13.2188 4.69061 13.2188 4.70624 13.2188 5.44999C13.2188 6.20311 13.2188 6.20936 13.1469 6.27499L13.075 6.34374H10.9906H8.90625V6.64061V6.94061L11.0563 6.93124L13.2031 6.92186L13.3313 6.85311C13.5062 6.75936 13.6531 6.60624 13.7313 6.43749C13.7906 6.30936 13.7969 6.23124 13.8063 5.49061C13.8156 4.85936 13.825 4.68749 13.8563 4.68749C13.925 4.68749 14.1875 4.43749 14.2594 4.29999C14.3125 4.19999 14.3281 4.11874 14.3281 3.92186C14.3281 3.70624 14.3156 3.65311 14.2438 3.52499C14.0312 3.16561 13.6438 3.01874 13.2375 3.14374Z" fill="#318130"/>
<path d="M7.55625 4C6.10625 4.30625 4.99375 5.275 4.50625 6.65625C4.3375 7.13438 4.29688 7.39688 4.29688 8C4.29688 8.41563 4.3125 8.60938 4.35625 8.8125C4.63125 10.0781 5.425 11.1031 6.57812 11.6813C6.9625 11.875 7.69688 12.0625 8.0625 12.0625C8.22187 12.0625 8.25312 12.0531 8.30938 11.9813C8.375 11.8969 8.375 11.8969 8.375 8C8.375 4.10313 8.375 4.10313 8.30938 4.01875C8.25 3.94375 8.225 3.9375 8.0375 3.94063C7.92188 3.94063 7.70625 3.96875 7.55625 4Z" fill="#318130"/>
<path d="M8.90625 5.5625V5.84375H10.3156H11.725L11.8156 5.75312C11.9125 5.65625 11.9313 5.54375 11.8688 5.42812C11.7906 5.28125 11.8094 5.28438 10.3219 5.28125H8.90625V5.5625Z" fill="#318130"/>
<path d="M15.3781 7.23125C15.2313 7.28437 15.0406 7.45312 14.9688 7.59687L14.9062 7.71875H11.9062H8.90625V8V8.28125H11.9062H14.9062L14.9656 8.39687C15.1 8.6625 15.3625 8.8125 15.6875 8.8125C16.0312 8.8125 16.2844 8.65625 16.425 8.35937C16.5094 8.18437 16.525 7.91562 16.4625 7.7125C16.4125 7.55 16.2219 7.33437 16.0469 7.25312C15.8875 7.17812 15.5563 7.16562 15.3781 7.23125Z" fill="#318130"/>
<path d="M8.90625 9.35938V9.65625H10.9938H13.0844L13.15 9.72812C13.2156 9.8 13.2188 9.825 13.2188 10.5531C13.2188 11.2937 13.2188 11.3094 13.1531 11.3281C13.05 11.3625 12.8469 11.5625 12.775 11.7C12.5031 12.2344 12.9156 12.9062 13.5156 12.9062C13.8 12.9062 14.0906 12.7344 14.2438 12.475C14.3156 12.3469 14.3281 12.2937 14.3281 12.0781C14.3281 11.8813 14.3125 11.8 14.2594 11.7C14.1875 11.5625 13.925 11.3125 13.8563 11.3125C13.825 11.3125 13.8156 11.1406 13.8063 10.5062C13.7969 9.76875 13.7906 9.69062 13.7313 9.5625C13.6531 9.39375 13.5062 9.24062 13.3313 9.14687L13.2031 9.07812L11.0563 9.06875L8.90625 9.05938V9.35938Z" fill="#318130"/>
<path d="M8.90625 10.4375V10.7188H10.3219C11.8094 10.7156 11.7906 10.7188 11.8688 10.5719C11.9313 10.4562 11.9125 10.3438 11.8156 10.2469L11.725 10.1562H10.3156H8.90625V10.4375Z" fill="#318130"/>
<path d="M8.90625 11.5312V11.8125H9.62188C10.3375 11.8125 10.3406 11.8125 10.4281 11.8875L10.5156 11.9625L10.525 12.8406L10.5344 13.7156L10.4125 13.7781C10.1281 13.9219 9.94063 14.2844 9.98125 14.6031C10.0281 14.9437 10.2469 15.2094 10.5594 15.3031C11.2281 15.4969 11.8031 14.8781 11.575 14.2094C11.5188 14.0469 11.3406 13.8437 11.1938 13.7781L11.0969 13.7375L11.0875 12.7812C11.0781 11.8687 11.075 11.8219 11.0094 11.7C10.9188 11.5312 10.6938 11.3344 10.5375 11.2875C10.4594 11.2625 10.1469 11.25 9.65938 11.25H8.90625V11.5312Z" fill="#318130"/>
</g>
<defs>
<clipPath id="clip0_760_1525">
<rect width="16" height="16" fill="white" transform="translate(0.5)"/>
</clipPath>
</defs>
</svg>
