
<svg width="10" height="12" viewBox="0 0 10 12" fill="none" xmlns="http://www.w3.org/2000/svg">
<path d="M7.68342 2.395C7.28467 1.93978 7.06492 1.35517 7.06509 0.75H5.26259V7.98333C5.24869 8.37476 5.08343 8.74553 4.80162 9.01755C4.51981 9.28957 4.14344 9.44161 3.75176 9.44167C2.92342 9.44167 2.23509 8.765 2.23509 7.925C2.23509 6.92167 3.20342 6.16917 4.20092 6.47833V4.635C2.18842 4.36667 0.426758 5.93 0.426758 7.925C0.426758 9.8675 2.03676 11.25 3.74592 11.25C5.57759 11.25 7.06509 9.7625 7.06509 7.925V4.25583C7.79601 4.78075 8.67355 5.06238 9.57342 5.06083V3.25833C9.57342 3.25833 8.47676 3.31083 7.68342 2.395Z" fill="white"/>
</svg>
