<svg width="17" height="16" viewBox="0 0 17 16" fill="none" xmlns="http://www.w3.org/2000/svg">
<path d="M5.06686 11.4333L2.93353 10.2667L3.63353 9.56668L5.3002 9.80001L7.9002 7.20001L2.7002 4.36668L3.63353 3.43335L10.0002 5.06668L12.6169 2.48335C12.8058 2.29446 13.042 2.20001 13.3255 2.20001C13.6091 2.20001 13.8451 2.29446 14.0335 2.48335C14.2224 2.67223 14.3169 2.90846 14.3169 3.19201C14.3169 3.47557 14.2224 3.71157 14.0335 3.90001L11.4335 6.50001L13.0669 12.8667L12.1335 13.8L9.3002 8.60001L6.7002 11.2L6.93353 12.8667L6.23353 13.5667L5.06686 11.4333Z" fill="white"/>
</svg>
