<svg width="48" height="48" viewBox="0 0 48 48" fill="none" xmlns="http://www.w3.org/2000/svg">
<circle cx="24" cy="24" r="24" fill="#BFD8BF"/>
<path d="M24.3315 27.3398C24.3037 28.445 24.8531 28.3557 24.8531 28.3557C24.8871 28.2644 24.9656 28.1386 25.0601 27.9926C25.3477 27.552 25.788 26.9344 25.6228 26.5685C25.5478 26.4026 25.4075 26.1709 25.2554 25.9378C24.9608 25.4883 24.6226 25.0338 24.6226 25.0338L26.0895 24.7918C26.0895 24.7918 27.1342 25.222 27.9586 25.2718C27.9802 25.2731 28.0017 25.2738 28.0225 25.2738C28.7755 25.2883 28.6539 24.7005 28.6539 24.511C28.6539 24.43 28.4504 24.282 28.2122 24.1362C27.8726 23.9287 27.4607 23.7247 27.4607 23.7247L27.6836 23.2647C27.8385 23.2924 27.967 23.2979 28.0733 23.2855C28.6442 23.2232 28.5657 22.6637 28.4733 22.4196C28.4469 22.3497 28.3156 22.2439 28.1302 22.1221C27.5433 21.7369 26.4194 21.2002 26.4194 21.2002H24.7712L23.1494 25.6086C23.1492 25.6087 24.3586 26.2346 24.3315 27.3398Z" fill="#E8E8E8"/>
<path opacity="0.4" d="M24.3315 27.3398C24.3037 28.445 24.8531 28.3557 24.8531 28.3557C24.8871 28.2644 24.9656 28.1386 25.0601 27.9926C25.3477 27.552 25.788 26.9344 25.6228 26.5685C25.5478 26.4026 25.4075 26.1709 25.2554 25.9378C24.9608 25.4883 24.6226 25.0338 24.6226 25.0338L26.0895 24.7918C26.0895 24.7918 27.1342 25.222 27.9586 25.2718C27.9802 25.2731 28.0017 25.2738 28.0225 25.2738C28.7755 25.2883 28.6539 24.7005 28.6539 24.511C28.6539 24.43 28.4504 24.282 28.2122 24.1362C27.8726 23.9287 27.4607 23.7247 27.4607 23.7247L27.6836 23.2647C27.8385 23.2924 27.967 23.2979 28.0733 23.2855C28.6442 23.2232 28.5657 22.6637 28.4733 22.4196C28.4469 22.3497 28.3156 22.2439 28.1302 22.1221C27.5433 21.7369 26.4194 21.2002 26.4194 21.2002H24.7712L23.1494 25.6086C23.1492 25.6087 24.3586 26.2346 24.3315 27.3398Z" fill="#BFD8BF"/>
<path opacity="0.4" d="M24.3315 27.3398C24.3037 28.445 24.8531 28.3557 24.8531 28.3557C24.8871 28.2644 24.9656 28.1386 25.0601 27.9926C25.0407 27.8903 25.0282 27.7796 25.0303 27.671C25.0373 27.2927 25.3491 26.5685 25.3491 26.5685L25.0303 26.0664C25.0768 26.0187 25.1567 25.9758 25.2554 25.9378C24.9608 25.4883 24.6226 25.0338 24.6226 25.0338L26.0895 24.7918C26.0895 24.7918 27.1342 25.222 27.9586 25.2718C27.9802 25.2731 28.0017 25.2738 28.0225 25.2738C27.9747 24.8623 28.1379 24.3436 28.2122 24.1361C27.8726 23.9286 27.4607 23.7246 27.4607 23.7246L27.6836 23.2646C27.8385 23.2923 27.967 23.2978 28.0733 23.2854C27.9983 22.9265 28.0698 22.4285 28.1302 22.1221C27.5433 21.7369 26.4194 21.2002 26.4194 21.2002H24.7712L23.1494 25.6086C23.1492 25.6087 24.3586 26.2346 24.3315 27.3398Z" fill="#BFD8BF"/>
<path d="M24.7705 21.2002H26.4192C26.4192 21.2002 28.363 22.1289 28.4729 22.4193C28.5828 22.7097 28.6723 23.4419 27.6831 23.265L27.4602 23.7246C27.4602 23.7246 28.6535 24.3153 28.6535 24.5108C28.6535 24.7064 28.7822 25.321 27.9579 25.2716C27.1336 25.2222 26.0895 24.7916 26.0895 24.7916L24.6225 25.0336C24.6225 25.0336 25.4026 26.0816 25.6224 26.5685C25.8422 27.0555 24.9904 27.9879 24.853 28.3562C24.853 28.3562 24.3035 28.4449 24.3309 27.3398C24.3584 26.2346 23.1494 25.6086 23.1494 25.6086" stroke="#318130" stroke-miterlimit="10" stroke-linecap="round" stroke-linejoin="round"/>
<path d="M25.1606 26.3716C25.1606 26.3716 24.7474 26.1412 24.5225 26.5687" stroke="#318130" stroke-miterlimit="10" stroke-linecap="round" stroke-linejoin="round"/>
<path d="M30.2104 26.8207H22.0423C21.6063 26.8207 21.2529 26.4688 21.2529 26.0347V10.786C21.2529 10.3519 21.6063 10 22.0423 10H30.2104C30.6463 10 30.9997 10.3519 30.9997 10.786V26.0347C30.9997 26.4688 30.6464 26.8207 30.2104 26.8207Z" fill="#BFD8BF" stroke="#318130" stroke-miterlimit="10" stroke-linecap="round" stroke-linejoin="round"/>
<path d="M30.6982 10.6827V26.182C30.6982 26.3756 30.5405 26.5326 30.3461 26.5326H21.9078C21.7133 26.5326 21.5557 26.3756 21.5557 26.182V10.6827C21.5557 10.489 21.7133 10.332 21.9078 10.332H23.7828C23.9062 10.332 24.0166 10.4084 24.0597 10.5236L24.1394 10.7367C24.1824 10.8518 24.2929 10.9282 24.4163 10.9282H27.8376C27.961 10.9282 28.0715 10.8518 28.1145 10.7367L28.1942 10.5236C28.2372 10.4084 28.3477 10.332 28.4711 10.332H30.3461C30.5405 10.332 30.6982 10.489 30.6982 10.6827Z" fill="#318130"/>
<path d="M27.3617 22.7047H24.8898C24.427 22.7047 24.0518 22.3311 24.0518 21.8702C24.0518 21.4093 24.427 21.0356 24.8898 21.0356H27.3617C27.8246 21.0356 28.1998 21.4093 28.1998 21.8702C28.1998 22.3311 27.8246 22.7047 27.3617 22.7047Z" fill="#BFD8BF" stroke="#318130" stroke-miterlimit="10" stroke-linecap="round" stroke-linejoin="round"/>
<path d="M25.3186 10.5068C25.3186 10.587 25.2534 10.6519 25.173 10.6519C25.0925 10.6519 25.0273 10.587 25.0273 10.5068C25.0273 10.4267 25.0925 10.3618 25.173 10.3618C25.2534 10.3618 25.3186 10.4267 25.3186 10.5068Z" fill="#E8E8E8" stroke="#318130" stroke-miterlimit="10" stroke-linecap="round" stroke-linejoin="round"/>
<path d="M27.2237 10.507C27.2237 10.5572 27.1828 10.5979 27.1324 10.5979C27.0819 10.5979 27.041 10.5571 27.041 10.507C27.041 10.4567 27.0819 10.416 27.1324 10.416C27.1828 10.416 27.2237 10.4567 27.2237 10.507Z" fill="#E8E8E8" stroke="#318130" stroke-miterlimit="10" stroke-linecap="round" stroke-linejoin="round"/>
<path d="M26.7063 10.5577H25.6141C25.5856 10.5577 25.5625 10.5347 25.5625 10.5064C25.5625 10.4781 25.5856 10.4551 25.6141 10.4551H26.7063C26.7347 10.4551 26.7578 10.4781 26.7578 10.5064C26.7578 10.5348 26.7347 10.5577 26.7063 10.5577Z" fill="#E8E8E8" stroke="#318130" stroke-miterlimit="10" stroke-linecap="round" stroke-linejoin="round"/>
<path d="M29.1817 20.1834H23.07C22.4823 20.1834 22.0059 19.709 22.0059 19.1237V12.8683C22.0059 12.2831 22.4823 11.8086 23.07 11.8086H29.1817C29.7694 11.8086 30.2459 12.2831 30.2459 12.8683V19.1237C30.2459 19.709 29.7695 20.1834 29.1817 20.1834Z" fill="#E8E8E8" stroke="#318130" stroke-miterlimit="10" stroke-linecap="round" stroke-linejoin="round"/>
<path d="M25.2959 15.352V14.0933" stroke="#318130" stroke-miterlimit="10" stroke-linecap="round" stroke-linejoin="round"/>
<path d="M25.2959 16.1071V15.6035" stroke="#318130" stroke-miterlimit="10" stroke-linecap="round" stroke-linejoin="round"/>
<path d="M25.2959 16.5775V16.3081" stroke="#318130" stroke-miterlimit="10" stroke-linecap="round" stroke-linejoin="round"/>
<path d="M25.5351 14.24L25.2963 13.9458L25.0576 14.24" stroke="#318130" stroke-miterlimit="10" stroke-linecap="round" stroke-linejoin="round"/>
<path d="M26.959 14.8852V13.6265" stroke="#318130" stroke-miterlimit="10" stroke-linecap="round" stroke-linejoin="round"/>
<path d="M26.959 15.6402V15.1367" stroke="#318130" stroke-miterlimit="10" stroke-linecap="round" stroke-linejoin="round"/>
<path d="M26.959 16.1106V15.8413" stroke="#318130" stroke-miterlimit="10" stroke-linecap="round" stroke-linejoin="round"/>
<path d="M27.1981 13.7732L26.9594 13.479L26.7207 13.7732" stroke="#318130" stroke-miterlimit="10" stroke-linecap="round" stroke-linejoin="round"/>
<path d="M26.0879 14.0395V12.7808" stroke="#318130" stroke-miterlimit="10" stroke-linecap="round" stroke-linejoin="round"/>
<path d="M26.0879 14.7945V14.291" stroke="#318130" stroke-miterlimit="10" stroke-linecap="round" stroke-linejoin="round"/>
<path d="M26.0879 15.2658V14.9966" stroke="#318130" stroke-miterlimit="10" stroke-linecap="round" stroke-linejoin="round"/>
<path d="M26.327 12.9276L26.0883 12.6333L25.8496 12.9276" stroke="#318130" stroke-miterlimit="10" stroke-linecap="round" stroke-linejoin="round"/>
<path d="M27.4133 16.1067C27.5799 15.3988 27.1387 14.6904 26.4278 14.5245C25.7169 14.3585 25.0055 14.7979 24.8388 15.5058C24.6722 16.2137 25.1134 16.9221 25.8244 17.088C26.5353 17.254 27.2467 16.8146 27.4133 16.1067Z" fill="#BFD8BF" stroke="#318130" stroke-miterlimit="10" stroke-linecap="round" stroke-linejoin="round"/>
<path d="M26.0344 15.1069V15.001H26.2185V15.1069C26.378 15.1395 26.4598 15.2617 26.4598 15.4552V15.5H26.2471V15.4409C26.2471 15.3391 26.2062 15.3004 26.1346 15.3004C26.063 15.3004 26.0221 15.3391 26.0221 15.4409C26.0221 15.5427 26.063 15.614 26.2144 15.7342C26.3985 15.8808 26.4619 15.9928 26.4619 16.1558C26.4619 16.3493 26.378 16.4736 26.2185 16.5061V16.61H26.0344V16.5061C25.8728 16.4735 25.791 16.3493 25.791 16.1558V16.058H26.0038V16.17C26.0038 16.2719 26.0488 16.3085 26.1204 16.3085C26.192 16.3085 26.237 16.2719 26.237 16.17C26.237 16.0682 26.1961 15.9949 26.0447 15.8767C25.8606 15.7321 25.7972 15.6181 25.7972 15.4551C25.7972 15.2637 25.8769 15.1414 26.0344 15.1069Z" fill="#318130"/>
<path d="M25.0963 17.9323V17.8921H25.1662V17.9323C25.2268 17.9447 25.2578 17.991 25.2578 18.0645V18.0816H25.1771V18.0592C25.1771 18.0205 25.1616 18.0059 25.1344 18.0059C25.1072 18.0059 25.0916 18.0206 25.0916 18.0592C25.0916 18.0979 25.1072 18.1249 25.1646 18.1705C25.2345 18.2262 25.2586 18.2687 25.2586 18.3306C25.2586 18.4041 25.2268 18.4512 25.1662 18.4635V18.503H25.0963V18.4635C25.035 18.4512 25.0039 18.4041 25.0039 18.3306V18.2935H25.0847V18.336C25.0847 18.3747 25.1017 18.3885 25.1289 18.3885C25.1561 18.3885 25.1732 18.3746 25.1732 18.336C25.1732 18.2974 25.1576 18.2695 25.1002 18.2247C25.0303 18.1698 25.0063 18.1265 25.0063 18.0646C25.0062 17.9918 25.0365 17.9454 25.0963 17.9323Z" fill="#318130"/>
<path d="M25.3691 17.9952C25.4353 17.9952 25.4501 17.9635 25.4633 17.9272H25.5209V18.4683H25.4353V18.0556H25.3691V17.9952Z" fill="#318130"/>
<path d="M25.6182 18.057C25.6182 17.9705 25.664 17.9209 25.7478 17.9209C25.8316 17.9209 25.8774 17.9704 25.8774 18.057V18.3384C25.8774 18.425 25.8316 18.4745 25.7478 18.4745C25.664 18.4745 25.6182 18.425 25.6182 18.3384V18.057ZM25.7036 18.3438C25.7036 18.3825 25.7206 18.3972 25.7478 18.3972C25.775 18.3972 25.792 18.3825 25.792 18.3438V18.0517C25.792 18.013 25.775 17.9984 25.7478 17.9984C25.7206 17.9984 25.7036 18.0131 25.7036 18.0517V18.3438Z" fill="#318130"/>
<path d="M25.9248 18.057C25.9248 17.9705 25.9707 17.9209 26.0544 17.9209C26.1383 17.9209 26.1841 17.9704 26.1841 18.057V18.3384C26.1841 18.425 26.1382 18.4745 26.0544 18.4745C25.9706 18.4745 25.9248 18.425 25.9248 18.3384V18.057ZM26.0102 18.3438C26.0102 18.3825 26.0272 18.3972 26.0544 18.3972C26.0816 18.3972 26.0987 18.3825 26.0987 18.3438V18.0517C26.0987 18.013 26.0816 17.9984 26.0544 17.9984C26.0272 17.9984 26.0102 18.0131 26.0102 18.0517V18.3438Z" fill="#318130"/>
<path d="M26.2324 18.057C26.2324 17.9705 26.2783 17.9209 26.362 17.9209C26.4458 17.9209 26.4917 17.9704 26.4917 18.057V18.3384C26.4917 18.425 26.4458 18.4745 26.362 18.4745C26.2783 18.4745 26.2324 18.425 26.2324 18.3384V18.057ZM26.3179 18.3438C26.3179 18.3825 26.3349 18.3972 26.3621 18.3972C26.3893 18.3972 26.4064 18.3825 26.4064 18.3438V18.0517C26.4064 18.013 26.3893 17.9984 26.3621 17.9984C26.3349 17.9984 26.3179 18.0131 26.3179 18.0517V18.3438Z" fill="#318130"/>
<path d="M26.6294 18.3867V18.4687H26.5469V18.3867H26.6294Z" fill="#318130"/>
<path d="M26.6836 18.057C26.6836 17.9705 26.7294 17.9209 26.8132 17.9209C26.897 17.9209 26.9428 17.9704 26.9428 18.057V18.3384C26.9428 18.425 26.897 18.4745 26.8132 18.4745C26.7294 18.4745 26.6836 18.425 26.6836 18.3384V18.057ZM26.7691 18.3438C26.7691 18.3825 26.7861 18.3972 26.8133 18.3972C26.8405 18.3972 26.8575 18.3825 26.8575 18.3438V18.0517C26.8575 18.013 26.8405 17.9984 26.8133 17.9984C26.7861 17.9984 26.7691 18.0131 26.7691 18.0517V18.3438Z" fill="#318130"/>
<path d="M26.9932 18.057C26.9932 17.9705 27.039 17.9209 27.1228 17.9209C27.2066 17.9209 27.2524 17.9704 27.2524 18.057V18.3384C27.2524 18.425 27.2066 18.4745 27.1228 18.4745C27.0389 18.4745 26.9932 18.425 26.9932 18.3384V18.057ZM27.0786 18.3438C27.0786 18.3825 27.0956 18.3972 27.1228 18.3972C27.15 18.3972 27.167 18.3825 27.167 18.3438V18.0517C27.167 18.013 27.15 17.9984 27.1228 17.9984C27.0956 17.9984 27.0786 18.0131 27.0786 18.0517V18.3438Z" fill="#318130"/>
<path d="M24.626 18.9692H24.7116V19.5103H24.626V18.9692Z" fill="#318130"/>
<path d="M24.7734 18.9692H24.9085C24.9939 18.9692 25.0358 19.0164 25.0358 19.103V19.3767C25.0358 19.4633 24.9939 19.5104 24.9085 19.5104H24.7734V18.9692ZM24.8588 19.0465V19.433H24.907C24.9342 19.433 24.9504 19.4191 24.9504 19.3805V19.0991C24.9504 19.0604 24.9342 19.0465 24.907 19.0465H24.8588Z" fill="#318130"/>
<path d="M25.1656 19.4282V19.5102H25.083V19.4282H25.1656Z" fill="#318130"/>
<path d="M25.3516 19.0403C25.3244 19.0403 25.3074 19.055 25.3074 19.0936V19.1515H25.2266V19.099C25.2266 19.0125 25.27 18.9629 25.3539 18.9629C25.4377 18.9629 25.4812 19.0124 25.4812 19.099C25.4812 19.1709 25.4548 19.2288 25.3756 19.3131C25.3252 19.3673 25.3112 19.3927 25.3112 19.4213C25.3112 19.4251 25.3112 19.429 25.312 19.4329H25.4735V19.5102H25.2266V19.4437C25.2266 19.3834 25.2483 19.3378 25.312 19.2713C25.3772 19.2025 25.3958 19.1599 25.3958 19.102C25.3958 19.0534 25.3788 19.0403 25.3516 19.0403Z" fill="#318130"/>
<path d="M25.5879 19.0372C25.654 19.0372 25.6688 19.0055 25.6821 18.9692H25.7397V19.5103H25.654V19.0975H25.5879V19.0372Z" fill="#318130"/>
<path d="M25.9656 19.5164C25.8794 19.5164 25.832 19.467 25.832 19.3804V19.3379C25.832 19.2861 25.8475 19.2467 25.8849 19.2258V19.2242C25.8492 19.2049 25.832 19.1694 25.832 19.116V19.099C25.832 19.0125 25.8794 18.9629 25.9656 18.9629C26.0517 18.9629 26.0991 19.0124 26.0991 19.099V19.116C26.0991 19.1694 26.0812 19.2049 26.0463 19.2242V19.2258C26.0836 19.2467 26.0991 19.286 26.0991 19.3379V19.3804C26.0991 19.467 26.0517 19.5164 25.9656 19.5164ZM25.9174 19.1322C25.9174 19.1755 25.9376 19.1894 25.9656 19.1894C25.9928 19.1894 26.0137 19.1755 26.0137 19.1322V19.1021C26.0137 19.0534 25.9928 19.0402 25.9656 19.0402C25.9384 19.0402 25.9174 19.0534 25.9174 19.1021V19.1322ZM25.9656 19.4391C25.9928 19.4391 26.013 19.426 26.0137 19.378V19.3278C26.0137 19.2853 25.9959 19.2667 25.9656 19.2667C25.9353 19.2667 25.9174 19.2853 25.9174 19.3278V19.378C25.9174 19.426 25.9384 19.4391 25.9656 19.4391Z" fill="#318130"/>
<path d="M26.2031 19.0372C26.2693 19.0372 26.2841 19.0055 26.2973 18.9692H26.3549V19.5103H26.2693V19.0975H26.2031V19.0372Z" fill="#318130"/>
<path d="M26.7084 19.3757C26.7084 19.467 26.6665 19.5164 26.578 19.5164C26.4941 19.5164 26.4507 19.467 26.4507 19.3804V19.3665H26.5315V19.3858C26.5315 19.4245 26.5485 19.4392 26.5757 19.4392C26.6059 19.4392 26.6231 19.4245 26.6231 19.3727V19.2745H26.6215C26.6068 19.3054 26.5819 19.3217 26.5439 19.3217C26.481 19.3217 26.4492 19.2776 26.4492 19.198V19.099C26.4492 19.0125 26.4951 18.9629 26.5788 18.9629C26.6626 18.9629 26.7085 19.0124 26.7085 19.099V19.3757H26.7084ZM26.623 19.191V19.0936C26.623 19.0549 26.6059 19.041 26.5788 19.041C26.5516 19.041 26.5344 19.055 26.5344 19.0936V19.191C26.5344 19.2297 26.5516 19.2443 26.5788 19.2443C26.6059 19.2443 26.623 19.2296 26.623 19.191Z" fill="#318130"/>
<path d="M26.8424 19.3357V19.3859C26.8424 19.4246 26.8596 19.4385 26.8867 19.4385C26.9139 19.4385 26.931 19.4246 26.931 19.3859V19.2668C26.931 19.2282 26.9139 19.2136 26.8867 19.2136C26.8596 19.2136 26.8424 19.2282 26.8424 19.2668V19.2831H26.7617L26.7772 18.9692H27.0024V19.0465H26.8533L26.8463 19.1756H26.848C26.8635 19.1501 26.8875 19.1362 26.9217 19.1362C26.9846 19.1362 27.0164 19.1803 27.0164 19.2598V19.3804C27.0164 19.467 26.9729 19.5164 26.889 19.5164C26.8052 19.5164 26.7617 19.467 26.7617 19.3804V19.3356L26.8424 19.3357Z" fill="#318130"/>
<path d="M27.0684 19.1036C27.0684 19.0124 27.1104 18.9629 27.1988 18.9629C27.2827 18.9629 27.3262 19.0124 27.3262 19.099V19.1129H27.2454V19.0936C27.2454 19.0549 27.2283 19.0403 27.2011 19.0403C27.1709 19.0403 27.1538 19.055 27.1538 19.1067V19.2049H27.1553C27.17 19.174 27.1949 19.1577 27.2329 19.1577C27.2958 19.1577 27.3276 19.2018 27.3276 19.2814V19.3803C27.3276 19.4669 27.2818 19.5164 27.198 19.5164C27.1142 19.5164 27.0684 19.4669 27.0684 19.3803L27.0684 19.1036ZM27.1538 19.2884V19.3858C27.1538 19.4245 27.1709 19.4385 27.1981 19.4385C27.2253 19.4385 27.2424 19.4245 27.2424 19.3858V19.2884C27.2424 19.2498 27.2253 19.235 27.1981 19.235C27.1709 19.235 27.1538 19.2497 27.1538 19.2884Z" fill="#318130"/>
<path d="M27.6312 18.9693V19.0435L27.5055 19.5104H27.4201L27.545 19.0465H27.375V18.9692L27.6312 18.9693Z" fill="#318130"/>
<path d="M26.0166 18.6035H26.1169V18.6328H26.083V18.8084H26.0505V18.6328H26.0167V18.6035H26.0166Z" fill="#318130"/>
<path d="M26.1289 18.6531C26.1289 18.6203 26.1463 18.6016 26.1781 18.6016C26.2099 18.6016 26.2274 18.6203 26.2274 18.6531V18.7596C26.2274 18.7923 26.2099 18.8111 26.1781 18.8111C26.1463 18.8111 26.1289 18.7923 26.1289 18.7596V18.6531ZM26.1614 18.7616C26.1614 18.7762 26.1678 18.7818 26.1781 18.7818C26.1885 18.7818 26.1949 18.7763 26.1949 18.7616V18.651C26.1949 18.6364 26.1885 18.6308 26.1781 18.6308C26.1678 18.6308 26.1614 18.6363 26.1614 18.651V18.7616Z" fill="#318130"/>
<path d="M25.4411 21.4229C25.5631 21.4229 25.6259 21.4955 25.6259 21.6227V21.6477H25.5072V21.6147C25.5072 21.558 25.4844 21.5364 25.4445 21.5364C25.4045 21.5364 25.3818 21.558 25.3818 21.6147C25.3818 21.6727 25.4068 21.7158 25.489 21.7873C25.5939 21.8793 25.6271 21.9452 25.6271 22.0361C25.6271 22.1633 25.5632 22.2359 25.44 22.2359C25.3168 22.2359 25.2529 22.1633 25.2529 22.0361V21.9873H25.3716V22.044C25.3716 22.1008 25.3967 22.1213 25.4366 22.1213C25.4765 22.1213 25.5016 22.1008 25.5016 22.044C25.5016 21.9861 25.4766 21.943 25.3944 21.8714C25.2895 21.7794 25.2564 21.7136 25.2564 21.6227C25.2563 21.4956 25.3191 21.4229 25.4411 21.4229Z" fill="#318130"/>
<path d="M25.8238 21.7671H25.9959V21.8807H25.8238V22.1135H26.0404V22.227H25.6982V21.4321H26.0404V21.5457H25.8238V21.7671Z" fill="#318130"/>
<path d="M26.2324 21.6513H26.2301V22.227H26.1172V21.4321H26.2746L26.4012 21.908H26.4035V21.4321H26.5152V22.227H26.3863L26.2324 21.6513Z" fill="#318130"/>
<path d="M26.6045 21.4321H26.803C26.9284 21.4321 26.99 21.5014 26.99 21.6285V22.0305C26.99 22.1577 26.9284 22.2269 26.803 22.2269H26.6045V21.4321ZM26.7299 21.5456V22.1134H26.8007C26.8406 22.1134 26.8646 22.0929 26.8646 22.0362V21.6228C26.8646 21.566 26.8406 21.5456 26.8007 21.5456H26.7299Z" fill="#318130"/>
<path d="M20.5107 19.834C20.5107 19.834 21.0603 20.0031 21.2526 20.4787" stroke="#318130" stroke-miterlimit="10" stroke-linecap="round" stroke-linejoin="round"/>
<path d="M18.0215 34.9079C18.0828 33.8506 18.1232 32.7706 18.1762 31.901C18.2861 30.098 18.3685 28.8885 18.5333 27.6573C18.6982 26.426 18.6707 24.5663 18.7531 23.9166C18.8355 23.2669 19.0812 23.1295 19.2752 22.3579C19.4692 21.5863 19.6435 20.0497 19.9621 19.8336C20.2807 19.6176 21.2536 19.2119 21.2536 19.2119V23.5645C21.8306 24.4479 22.5175 24.6665 22.5175 24.6665C22.9572 23.3994 22.9022 22.8965 23.3419 22.4313C23.7815 21.9662 24.0982 21.3581 24.7885 21.6122C25.1172 21.7332 25.2928 21.8568 25.1279 22.9664C24.963 24.0759 24.6333 24.4246 24.6333 24.4246C24.5784 24.8036 24.6608 25.9061 24.7982 26.4701C24.9355 27.0341 24.4135 28.5328 24.1661 29.4904C23.9188 30.448 22.5999 32.3885 22.5999 32.3885C22.5999 32.3885 22.5449 33.4576 22.6549 34.5794C22.6649 34.6824 22.6776 34.7927 22.6923 34.9077L22.7795 37.8877L18.0215 37.7983V34.9079Z" fill="#E8E8E8"/>
<path opacity="0.4" d="M25.0304 21.9387C25.004 21.8439 25.0082 21.7817 25.0304 21.7416C24.9658 21.6821 24.8838 21.6468 24.7887 21.6123C24.0983 21.3578 23.7816 21.9664 23.3419 22.4312C23.3009 22.4747 23.2641 22.5183 23.2314 22.5633C23.6294 22.4139 24.1511 22.4167 24.3608 22.7065C24.6248 23.0695 25.1623 22.4132 25.0304 21.9387Z" fill="#BFD8BF"/>
<path opacity="0.4" d="M22.0494 33.8408L21.832 34.6521C21.832 34.6521 22.1383 34.3533 22.5961 33.6285C22.5738 32.921 22.6009 32.3891 22.6009 32.3891C22.6009 32.3891 23.9199 30.4484 24.1671 29.4911C24.4144 28.5332 24.9367 27.0345 24.7992 26.4708C24.6617 25.9064 24.5798 24.804 24.6346 24.425C24.6346 24.425 24.7034 24.3517 24.7943 24.1656C24.7346 24.1082 24.6651 24.0612 24.5873 24.0439C24.5873 24.0439 24.2345 24.8759 24.3199 25.9708C24.4053 27.0649 24.2171 27.1562 23.8531 28.5789C23.4891 30.0017 22.8849 31.6124 22.6007 31.9015C22.3168 32.1906 22.1939 33.4923 22.0494 33.8408Z" fill="#BFD8BF"/>
<path opacity="0.4" d="M21.5283 24.2551C21.5283 24.2551 21.0949 24.3222 20.9206 24.4245C20.9206 24.4245 21.7666 24.6445 21.8215 24.879C21.8764 25.1128 22.0576 25.3569 22.3792 25.0706C22.3792 25.0706 22.3959 24.8914 22.4292 24.6314C22.225 24.5408 21.7062 24.2566 21.254 23.565V19.2119C21.254 19.2119 20.7733 19.4124 20.3768 19.6061C20.6705 19.6448 20.9713 19.7347 21.0887 19.9326C21.0887 19.9326 20.9998 20.297 20.5942 20.4782C20.2817 20.6179 20.5942 22.9667 20.5942 22.9667C20.5942 22.9667 20.0816 23.0926 19.917 23.565C19.917 23.565 20.7595 23.6508 21.1075 23.917C21.4554 24.1825 21.5283 24.2551 21.5283 24.2551Z" fill="#BFD8BF"/>
<path opacity="0.4" d="M18.1765 31.9012C18.1335 32.6053 18.0994 33.4476 18.0557 34.3045C18.164 32.6758 18.4925 29.8803 18.4925 29.8803C18.4925 29.8803 18.7863 30.9142 18.8085 30.8043C18.8738 30.4806 18.671 28.6512 18.689 27.9998C18.6974 27.7044 18.6758 26.9471 18.6494 26.2085C18.6258 26.7161 18.5918 27.2251 18.5334 27.6574C18.3689 28.8884 18.2863 30.0981 18.1765 31.9012Z" fill="#BFD8BF"/>
<path d="M18.0215 37.9999V34.9079C18.0828 33.8506 18.1232 32.7706 18.1762 31.901C18.2861 30.098 18.3685 28.8885 18.5333 27.6573C18.6982 26.426 18.6707 24.5663 18.7531 23.9166C18.8355 23.2669 19.0812 23.1296 19.2752 22.3579C19.4692 21.5863 19.6435 20.0497 19.9621 19.8336C20.2807 19.6176 21.2536 19.2119 21.2536 19.2119V23.5646C21.8306 24.4479 22.5175 24.6665 22.5175 24.6665C22.9572 23.3994 22.9022 22.8965 23.3419 22.4313C23.7815 21.9662 24.0982 21.3581 24.7885 21.6122C25.1172 21.7332 25.2928 21.8568 25.1279 22.9664C24.963 24.0759 24.6333 24.4246 24.6333 24.4246C24.5784 24.8036 24.6608 25.9061 24.7982 26.4701C24.9355 27.0341 24.4135 28.5328 24.1661 29.4904C23.9188 30.448 22.5999 32.3885 22.5999 32.3885C22.5999 32.3885 22.5449 33.4576 22.6549 34.5794C22.6649 34.6824 22.6776 34.7927 22.6923 34.9078C22.6923 34.9078 22.7366 36.8317 22.9472 37.9997" stroke="#318130" stroke-miterlimit="10" stroke-linecap="round" stroke-linejoin="round"/>
<path d="M22.5188 24.6665C22.5188 24.6665 22.3814 25.2769 22.1066 25.4137C21.8319 25.5505 21.4365 25.4137 21.4365 25.4137" stroke="#318130" stroke-miterlimit="10" stroke-linecap="round" stroke-linejoin="round"/>
<path d="M21.2546 23.5644C21.2546 23.5644 20.9798 22.9563 20.1006 23.4837" stroke="#318130" stroke-miterlimit="10" stroke-linecap="round" stroke-linejoin="round"/>
<path d="M21.2535 21.1073C21.2535 21.1073 21.1985 20.7847 20.7451 20.7026" stroke="#318130" stroke-miterlimit="10" stroke-linecap="round" stroke-linejoin="round"/>
<path d="M22.5999 32.3892C22.0778 33.0479 22.1771 33.6772 21.9763 34.0055C21.7755 34.3338 21.803 35.5104 21.803 35.5104" stroke="#318130" stroke-miterlimit="10" stroke-linecap="round" stroke-linejoin="round"/>
<path d="M18.8076 26.0664C18.8076 26.0664 18.8076 27.3586 18.8076 28.3562C18.8076 29.3539 19 30.3115 19 30.3115" stroke="#318130" stroke-miterlimit="10" stroke-linecap="round" stroke-linejoin="round"/>
<path d="M24.6327 24.4246C24.6327 24.4246 24.6327 24.0337 24.5225 23.9165" stroke="#318130" stroke-miterlimit="10" stroke-linecap="round" stroke-linejoin="round"/>
<path d="M24.3309 23.1955C24.3309 23.1955 24.0875 22.3796 23.373 22.7353" stroke="#318130" stroke-miterlimit="10" stroke-linecap="round" stroke-linejoin="round"/>
<path d="M22.1294 24.4652C21.5989 24.4764 21.0611 24.2422 20.7451 24.5271" stroke="#318130" stroke-miterlimit="10" stroke-linecap="round" stroke-linejoin="round"/>
<path d="M17.944 37.1051H17.8008V33.8599H17.944C18.0371 33.8599 18.1126 33.935 18.1126 34.0277V36.9373C18.1126 37.03 18.0372 37.1051 17.944 37.1051Z" fill="#318130"/>
<path d="M17.8008 34.2797C17.8008 34.2797 20.3199 33.624 22.7377 34.3714C22.8144 34.3951 22.8663 34.4669 22.8663 34.547V36.0867C22.8663 36.1442 22.8144 36.1878 22.7575 36.1777C22.2386 36.0846 19.9562 35.7255 17.9255 36.1981L17.8008 34.2797Z" fill="#318130"/>
<path d="M17.9104 34.2516V33.9047C17.9104 33.7904 17.8173 33.6978 17.7024 33.6978H17.42C17.3487 33.6978 17.2831 33.7365 17.2489 33.7987L17 34.2516V36.9038L17.2459 37.2021C17.2829 37.2471 17.3382 37.2731 17.3966 37.2731H17.7024C17.8172 37.2731 17.9104 37.1805 17.9104 37.0662V34.2516Z" fill="#BFD8BF" stroke="#318130" stroke-miterlimit="10" stroke-linecap="round" stroke-linejoin="round"/>
<path d="M17.7318 34.0801L18.3069 33.9736C18.3751 33.9609 18.4381 34.013 18.4381 34.0822V34.4127L18.2477 34.5533V35.6275H18.4381V36.1879C18.4381 36.2525 18.3925 36.3083 18.3289 36.3214L17.7828 36.4341C17.7009 36.4509 17.624 36.3887 17.624 36.3053V34.2092C17.6239 34.146 17.6693 34.0916 17.7318 34.0801Z" fill="#BFD8BF" stroke="#318130" stroke-miterlimit="10" stroke-linecap="round" stroke-linejoin="round"/>
<path d="M17.7529 36.2878L18.2214 36.1812C18.2563 36.1732 18.2811 36.1423 18.2811 36.1066V35.7563" stroke="#318130" stroke-miterlimit="10" stroke-linecap="round" stroke-linejoin="round"/>
<path d="M18.0908 35.6109V34.4611L18.2791 34.3185V34.103" stroke="#318130" stroke-miterlimit="10" stroke-linecap="round" stroke-linejoin="round"/>
<path d="M17.3291 33.9072V36.979" stroke="#318130" stroke-miterlimit="10" stroke-linecap="round" stroke-linejoin="round"/>
<path d="M19.6048 35.1062C19.5583 35.1062 19.5205 35.0686 19.5205 35.0223V34.8388C19.5205 34.7925 19.5583 34.7549 19.6048 34.7549C19.6513 34.7549 19.6891 34.7925 19.6891 34.8388V35.0223C19.6891 35.0686 19.6513 35.1062 19.6048 35.1062Z" fill="#E8E8E8"/>
<path d="M20.9026 35.1404C20.8561 35.1404 20.8184 35.1028 20.8184 35.0565V34.873C20.8184 34.8267 20.8561 34.7891 20.9026 34.7891C20.9492 34.7891 20.9869 34.8267 20.9869 34.873V35.0565C20.9869 35.1029 20.9493 35.1404 20.9026 35.1404Z" fill="#E8E8E8"/>
<path d="M22.0579 35.2821C22.0114 35.2821 21.9736 35.2445 21.9736 35.1981V35.0146C21.9736 34.9683 22.0114 34.9307 22.0579 34.9307C22.1044 34.9307 22.1422 34.9683 22.1422 35.0146V35.1981C22.1422 35.2446 22.1044 35.2821 22.0579 35.2821Z" fill="#E8E8E8"/>
</svg>
